<?xml version="1.0" encoding="UTF-8" standalone="no"?>
<!DOCTYPE svg PUBLIC "-//W3C//DTD SVG 1.1//EN" "http://www.w3.org/Graphics/SVG/1.1/DTD/svg11.dtd">
<svg width="100%" height="100%" viewBox="0 0 64 64" version="1.1" xmlns="http://www.w3.org/2000/svg" xmlns:xlink="http://www.w3.org/1999/xlink" xml:space="preserve" xmlns:serif="http://www.serif.com/" style="fill-rule:evenodd;clip-rule:evenodd;stroke-linejoin:round;stroke-miterlimit:2;">
    <g transform="matrix(0.0891805,-0.0546147,0.0546147,0.0891805,-26.8712,7.23697)">
        <path d="M312.11,371.254C280.328,370.937 248.704,368.99 217.672,361.471C208.33,359.207 199.195,356.26 190.758,351.514C187.153,349.486 183.779,347.13 181.174,343.833C176.61,338.057 176.561,331.772 181.216,326.047C186.025,320.133 192.663,316.922 199.529,314.152C214.333,308.181 229.899,305.28 245.604,303.102C280.898,298.208 316.347,297.598 351.835,300.164C374.766,301.822 397.551,304.682 419.517,311.993C426.999,314.483 434.242,317.519 440.348,322.695C449.287,330.271 449.354,339.693 440.327,347.163C431.457,354.504 420.699,357.867 409.826,360.752C387.15,366.77 363.943,369.198 340.597,370.46C331.114,370.973 321.621,371.454 312.11,371.254Z" style="fill:rgb(234,243,246);fill-opacity:0;stroke:rgb(234,243,246);stroke-width:19.13px;"/>
        <g transform="matrix(1,0,0,1,-0.0355929,0)">
            <path d="M204.41,452.624C204.206,460.725 198.331,474.142 196.988,481.356C195.202,490.948 198.385,498.799 204.103,505.995C212.461,516.515 223.816,522.696 236.091,527.332C259.269,536.085 283.465,539.317 308.059,539.611C337.602,539.965 366.647,536.797 394.175,525.072C403.913,520.924 412.818,515.432 419.71,507.203C426.037,499.647 429.74,491.395 427.783,481.042C426.427,473.865 419.41,458.465 419.375,450.575C435.45,457.165 457.267,472.217 467.663,486.415C476.803,498.894 476.143,512.931 466.197,524.995C456.792,536.403 444.236,543.304 430.936,548.959C408.599,558.458 385.083,563.359 361.106,566.319C336.226,569.389 311.26,570.043 286.26,568.467C253.854,566.425 222.017,561.511 191.992,548.299C183.172,544.417 174.81,539.703 167.437,533.419C165.16,531.478 162.934,529.44 160.92,527.232C147.185,512.169 147.376,495.537 161.613,480.971C171.945,470.403 190.381,458.107 204.41,452.624Z" style="fill:rgb(234,243,246);fill-opacity:0;stroke:rgb(234,243,246);stroke-width:19.13px;"/>
        </g>
        <path d="M184.972,348.017C223.452,362.465 270.195,372.656 310.619,372.676C351.036,372.696 400.022,363.746 438.774,349.321C436.558,355.141 426.938,373.136 425.285,378.955C419.394,399.686 417.445,420.89 417.822,442.344C417.895,446.475 417.237,450.096 414.854,453.584C411.697,458.206 409.508,463.487 405.55,467.574C398.694,474.654 390.071,478.847 381.003,482.194C365.784,487.811 349.914,490.456 333.834,491.795C307.512,493.985 281.41,492.562 255.718,486.037C246.875,483.791 238.424,480.53 230.343,476.209C220.905,471.163 215.075,462.323 207.551,455.271C206.348,454.145 206.901,452.671 206.935,451.361C207.457,431.198 206.646,411.132 202.498,391.321C200.367,381.141 189.487,357.622 184.972,348.017Z" style="fill:rgb(234,243,246);fill-opacity:0;stroke:rgb(234,243,246);stroke-width:19.13px;"/>
    </g>
    <path d="M43.016,30.051C43.095,30.181 43.136,30.331 43.135,30.509C43.127,31.945 43.133,33.381 43.129,34.817C43.129,34.935 43.146,34.985 43.283,34.986C44.225,34.99 45.166,35.032 46.102,35.147C46.823,35.236 47.541,35.346 48.22,35.622C48.55,35.757 48.851,35.932 49.021,36.268L49.021,44.918C48.933,45.21 48.721,45.388 48.466,45.528C48.281,45.629 48.088,45.707 47.887,45.769C46.89,46.078 45.859,46.175 44.825,46.246C44.419,46.274 44.012,46.292 43.606,46.314L42.788,46.314C42.645,46.27 42.496,46.29 42.35,46.285C41.188,46.243 40.029,46.166 38.898,45.869C38.481,45.759 38.071,45.622 37.746,45.319C37.677,45.255 37.612,45.229 37.522,45.229C36.358,45.237 35.198,45.191 34.046,45.019C33.412,44.924 32.784,44.802 32.205,44.509C31.913,44.361 31.676,44.16 31.584,43.828L31.584,41.166L32.658,40.577C32.819,40.639 32.983,40.688 33.15,40.729C34.095,40.96 35.059,41.052 36.027,41.1C36.463,41.121 36.9,41.12 37.336,41.134C37.446,41.138 37.482,41.101 37.478,40.989C37.469,40.769 37.473,40.547 37.477,40.326C37.478,40.249 37.458,40.21 37.374,40.215C37.306,40.22 37.238,40.212 37.17,40.212C36.034,40.219 34.907,40.121 33.788,39.92C33.785,39.919 33.781,39.919 33.778,39.918L34.721,39.289C35.244,39.347 35.77,39.378 36.298,39.4C36.644,39.414 36.99,39.411 37.336,39.42C37.443,39.422 37.486,39.388 37.478,39.274C37.468,39.128 37.475,38.979 37.475,38.832C37.475,38.549 37.475,38.552 37.188,38.548C36.709,38.542 36.231,38.528 35.754,38.5L36.445,37.756C36.488,37.758 36.532,37.76 36.575,37.762C36.825,37.762 37.074,37.758 37.323,37.764C37.437,37.767 37.487,37.739 37.478,37.614C37.467,37.462 37.475,37.308 37.475,37.155C37.475,37.067 37.475,37.009 37.464,36.972L37.903,36.657L39.001,35.361C39.982,35.12 40.989,35.071 41.994,35.007C42.36,34.984 42.293,35.037 42.304,34.675C42.307,34.57 42.278,34.548 42.176,34.588C41.488,34.854 40.766,34.964 40.038,35.041C39.768,35.069 39.499,35.093 39.229,35.111L40.185,34.213C40.246,34.205 40.306,34.198 40.367,34.19C40.946,34.112 41.52,34.009 42.07,33.798C42.236,33.734 42.336,33.647 42.303,33.448C42.284,33.332 42.29,33.21 42.295,33.092C42.302,32.957 42.277,32.909 42.129,32.972C41.772,33.122 41.394,33.204 41.015,33.272C40.951,33.283 40.887,33.294 40.823,33.305L41.064,32.935L41.817,32.247C41.928,32.21 42.039,32.168 42.147,32.121C42.264,32.07 42.325,32.003 42.313,31.864C42.303,31.757 42.303,31.648 42.306,31.54L43.016,30.051ZM43.182,38.858C44.363,38.849 45.479,38.8 46.584,38.617C47.065,38.538 47.544,38.446 47.994,38.247C48.11,38.195 48.172,38.127 48.16,37.989C48.147,37.831 48.152,37.671 48.159,37.513C48.165,37.397 48.134,37.366 48.015,37.397C46.766,37.726 45.495,37.917 44.204,37.957C43.042,37.993 41.879,37.987 40.722,37.838C39.923,37.736 39.131,37.6 38.356,37.376C38.249,37.345 38.226,37.372 38.229,37.472C38.233,37.653 38.239,37.835 38.227,38.016C38.217,38.149 38.273,38.207 38.389,38.25C38.602,38.329 38.819,38.395 39.039,38.446C40.423,38.768 41.831,38.846 43.182,38.858ZM38.325,43.974C38.325,44.203 38.331,44.424 38.322,44.645C38.319,44.746 38.357,44.801 38.442,44.844C38.662,44.955 38.894,45.027 39.131,45.086C40.143,45.338 41.175,45.434 42.214,45.474C43.811,45.537 45.402,45.489 46.976,45.188C47.36,45.114 47.742,45.025 48.097,44.854C48.16,44.824 48.243,44.805 48.243,44.709C48.243,44.466 48.243,44.224 48.243,43.977C46.624,44.533 44.958,44.603 43.29,44.599C41.622,44.596 39.956,44.514 38.325,43.974ZM32.403,41.25L32.403,41.827C32.403,42.181 32.402,42.183 32.743,42.295C33.245,42.46 33.765,42.548 34.287,42.618C35.316,42.757 36.352,42.806 37.39,42.806C37.47,42.806 37.514,42.792 37.511,42.695C37.505,42.463 37.505,42.23 37.511,41.998C37.514,41.903 37.475,41.884 37.392,41.886C37.211,41.891 37.029,41.89 36.848,41.891C35.341,41.901 33.846,41.831 32.403,41.25ZM38.266,42.37C38.263,42.409 38.26,42.443 38.259,42.476C38.249,43.199 38.254,43.202 38.96,43.386C39.93,43.64 40.922,43.74 41.919,43.792C43.298,43.863 44.675,43.832 46.045,43.656C46.686,43.573 47.322,43.463 47.931,43.231C48.11,43.163 48.218,43.071 48.182,42.859C48.164,42.748 48.173,42.632 48.181,42.519C48.19,42.388 48.165,42.347 48.027,42.408C47.741,42.534 47.437,42.607 47.132,42.67C45.983,42.91 44.817,42.978 43.648,42.981C41.838,42.985 40.031,42.941 38.266,42.37ZM43.205,40.46C44.211,40.465 45.213,40.415 46.21,40.281C46.789,40.203 47.366,40.108 47.912,39.887C48.181,39.778 48.179,39.774 48.179,39.491C48.179,39.411 48.179,39.332 48.179,39.252C48.179,39.057 48.179,39.057 47.989,39.106C46.992,39.363 45.982,39.535 44.956,39.613C43.874,39.695 42.79,39.7 41.707,39.63C40.574,39.556 39.452,39.397 38.36,39.069C38.274,39.043 38.251,39.066 38.253,39.152C38.257,39.322 38.262,39.493 38.251,39.662C38.244,39.781 38.295,39.837 38.396,39.878C38.665,39.987 38.945,40.058 39.228,40.117C40.54,40.386 41.87,40.455 43.205,40.46ZM32.369,42.956L32.369,43.324C32.369,43.814 32.368,43.817 32.833,43.967C33.549,44.197 34.289,44.306 35.034,44.384C35.797,44.464 36.562,44.485 37.329,44.486C37.425,44.486 37.459,44.455 37.455,44.359C37.449,44.189 37.454,44.018 37.454,43.848C37.454,43.562 37.454,43.563 37.174,43.567C36.059,43.583 34.953,43.492 33.855,43.296C33.36,43.207 32.867,43.106 32.369,42.956ZM43.231,42.148C44.39,42.138 45.545,42.089 46.689,41.887C47.147,41.807 47.602,41.713 48.031,41.526C48.152,41.473 48.224,41.407 48.207,41.259C48.192,41.119 48.191,40.974 48.207,40.834C48.226,40.672 48.164,40.664 48.032,40.699C47.043,40.959 46.039,41.14 45.019,41.212C42.783,41.369 40.564,41.291 38.387,40.691C38.292,40.665 38.282,40.697 38.283,40.775C38.286,40.951 38.29,41.127 38.282,41.302C38.278,41.403 38.317,41.458 38.404,41.501C38.68,41.638 38.976,41.717 39.274,41.784C40.578,42.073 41.903,42.134 43.231,42.148ZM48.089,36.49C48.063,36.467 48.049,36.447 48.03,36.439C47.909,36.391 47.79,36.337 47.665,36.301C46.889,36.075 46.09,35.979 45.287,35.921C43.449,35.787 41.615,35.8 39.792,36.1C39.35,36.173 38.912,36.267 38.497,36.443C38.454,36.462 38.388,36.472 38.396,36.54C38.402,36.594 38.46,36.596 38.5,36.611C38.739,36.702 38.986,36.762 39.236,36.813C40.571,37.085 41.922,37.156 43.28,37.153C44.574,37.15 45.864,37.082 47.135,36.811C47.46,36.742 47.785,36.664 48.089,36.49Z" style="fill:rgb(234,243,246);"/>
    <g transform="matrix(0.0515817,0,0,0.0324515,11.6424,33.4389)">
        <path d="M373.468,588.702C366.536,587.951 359.588,587.33 352.677,586.423C334.783,584.073 317.293,580.186 300.922,572.252C295.047,569.406 289.55,565.973 284.775,561.487C277.87,555.002 274.494,547.21 274.566,537.515C274.787,507.529 274.692,477.537 274.518,447.549C274.461,437.739 278.143,429.866 285.32,423.446C295.338,414.484 307.436,409.486 320.082,405.788C346.724,397.997 373.975,395.634 401.631,397.228C423.051,398.463 444.055,401.767 464.198,409.483C468.514,411.136 472.686,413.105 476.718,415.375C487.146,421.247 495.722,428.704 498.703,440.97L498.703,544.457C496.587,552.896 491.809,559.505 484.903,564.693C481.102,567.548 477.08,570.026 472.82,572.112C456.4,580.155 438.822,584.05 420.848,586.425C413.826,587.353 406.76,587.952 399.715,588.701C390.965,588.702 382.217,588.702 373.468,588.702ZM387.309,412.699C365.935,412.907 345.324,414.722 325.302,420.771C314.512,424.031 303.924,427.903 295.514,435.837C289.15,441.84 289.234,447.479 295.456,453.576C300.264,458.288 306.122,461.386 312.239,463.952C332.322,472.376 353.486,475.501 375.064,476.376C402.201,477.476 428.986,475.472 454.859,466.455C463.5,463.444 471.854,459.726 478.441,453.092C484.014,447.48 483.941,442.102 478.506,436.359C476.606,434.352 474.421,432.693 472.104,431.198C466.726,427.727 460.945,425.101 454.929,422.971C432.861,415.157 409.939,412.98 387.309,412.699ZM290.875,471.052C290.875,477.865 291.04,484.466 290.818,491.053C290.665,495.611 292.63,498.955 295.76,501.886C300.575,506.393 306.295,509.464 312.3,511.977C332.277,520.334 353.319,523.464 374.776,524.357C402.049,525.492 428.956,523.461 454.968,514.429C462.543,511.799 469.731,508.363 476.085,503.331C480.602,499.756 482.977,495.305 482.796,489.441C482.635,484.197 482.684,478.942 482.799,473.695C482.856,471.151 482.384,470.507 479.999,472.058C473.796,476.093 467.053,479.049 460.079,481.478C440.936,488.145 421.137,491.362 400.964,492.202C362.838,493.79 325.641,490.254 290.875,471.052ZM290.866,518.575C290.866,525.763 291.054,532.325 290.803,538.87C290.623,543.579 292.655,547.006 295.897,550.008C300.73,554.483 306.453,557.542 312.458,560.041C332.43,568.352 353.455,571.478 374.896,572.357C402.149,573.476 429.034,571.435 455.021,562.408C462.471,559.82 469.551,556.449 475.821,551.538C480.427,547.93 483.058,543.489 482.81,537.421C482.595,532.186 482.687,526.932 482.801,521.689C482.857,519.153 482.39,518.499 480.005,520.051C473.807,524.084 467.065,527.028 460.102,529.469C440.38,536.382 419.937,539.418 399.171,540.365C371.17,541.641 343.578,539.074 316.711,530.59C307.792,527.772 299.329,523.938 290.866,518.575Z" style="fill:rgb(234,243,246);stroke:rgb(234,243,246);stroke-width:3.69px;"/>
    </g>
</svg>
