<?xml version="1.0" encoding="UTF-8" standalone="no"?>
<!DOCTYPE svg PUBLIC "-//W3C//DTD SVG 1.1//EN" "http://www.w3.org/Graphics/SVG/1.1/DTD/svg11.dtd">
<svg width="100%" height="100%" viewBox="0 0 612 263" version="1.1" xmlns="http://www.w3.org/2000/svg" xmlns:xlink="http://www.w3.org/1999/xlink" xml:space="preserve" xmlns:serif="http://www.serif.com/" style="fill-rule:evenodd;clip-rule:evenodd;stroke-linejoin:round;stroke-miterlimit:2;">
    <g transform="matrix(1,0,0,1,0,-264.574)">
        <g transform="matrix(0.52974,0,0,0.52974,17.2295,159.518)">
            <path d="M249.504,500.05C251.441,500.109 252.748,498.999 254.209,498.36C265.285,493.517 276.72,490.288 288.923,491.873C303.412,493.755 314.187,501.484 321.709,513.878C324.88,519.103 327.139,524.733 328.479,530.688C329.001,533.009 329.849,533.182 331.831,532.172C337.902,529.077 344.486,528.04 351.22,527.778C359.639,527.45 368.085,528.312 376.485,527.205C377.489,527.072 378.506,526.834 379.45,526.471C381.777,525.576 382.476,524.21 381.304,521.682C375.378,508.918 364.971,501.893 351.779,498.542C343.516,496.444 335.121,494.873 326.841,492.837C320.022,491.159 313.538,488.706 308.08,483.964C304.962,481.255 301.152,479.592 297.294,478.085C289.401,474.998 286.699,470.82 287.279,462.452C287.577,458.149 288.191,453.875 289.368,449.696C291.33,442.73 288.367,434.601 282.453,430.548C275.078,425.49 275.151,425.505 276.902,416.568C280.999,395.671 290.462,377.218 302.575,359.976C309.681,349.861 317.538,340.36 326.264,331.585C327.496,330.346 328.417,329.325 329.711,331.551C330.482,332.877 332.007,333.422 333.477,333.26C340.151,332.528 345.536,328.176 345.712,320.935C345.742,319.715 346.137,318.063 343.948,318.06C343.256,318.059 343.276,317.572 343.395,316.974C344.115,313.361 342.624,312.089 339.105,313.245C338.745,313.363 338.334,313.329 337.725,313.386C337.809,311.619 338.771,310.656 339.965,309.836C348.116,304.24 355.92,298.286 362.089,290.392C365.693,285.779 369.617,281.411 373.513,277.034C384.4,264.805 397.859,256.331 412.868,250.078C431.265,242.414 450.639,238.024 469.794,232.898C476.127,231.203 482.599,229.938 488.413,225.8C488.683,228.102 487.349,228.843 486.308,229.699C479.714,235.128 472.081,238.682 464.245,241.863C453.853,246.08 443.491,250.331 434.366,257.069C426.526,262.859 419.648,269.56 413.952,277.487C409.707,283.396 405.749,289.538 400.435,294.746C405.803,293.251 411.116,291.883 416.552,291.2C429.389,289.585 442.207,287.848 455.14,287.011C468.246,286.162 481.416,285.521 494.064,281.325C502.611,278.49 510.266,274.304 516.357,267.53C516.849,266.982 517.219,266.08 518.513,266.322C517.322,269.05 514.962,270.744 512.674,273.513C515.543,272.079 516.97,269.926 519.315,269.038C519.742,270.572 518.62,271.053 517.909,271.642C499.034,287.269 478.202,299.078 454.011,304.318C452.914,304.556 451.782,304.848 450.799,305.365C432.353,315.055 412.603,321.625 393.393,329.493C382.203,334.077 370.638,337.975 360.606,345.007C340.472,359.12 324.339,376.797 313.094,398.774C312.698,399.548 311.804,400.099 311.963,401.48C317.284,394.247 322.588,387.353 328.551,380.984C342.523,366.061 359.404,355.906 379.356,351.764C396.834,348.136 414.673,348.368 432.489,349.191C452.819,350.129 473.104,350.073 491.846,340.353C494.789,338.827 498.072,337.586 500.193,334.732C500.427,334.416 500.936,333.921 501.102,333.994C504.711,335.591 505.917,332.265 507.696,330.596C522.877,316.342 540.297,306.352 560.875,302.29C564.636,301.548 568.453,301.7 572.237,302.182C573.075,302.288 574.275,302.283 574.502,303.423C574.721,304.529 573.989,305.417 573.177,306.048C572.554,306.533 571.759,306.927 570.987,307.072C551.159,310.805 534.752,321.096 519.543,333.745C510.917,340.918 503.025,348.894 494.617,356.303C487.686,362.41 480.166,367.522 470.467,370.327C473.159,371.338 475.285,372.082 477.369,372.929C490.515,378.269 503.628,383.663 517.576,386.699C529.893,389.38 542.294,390.998 554.903,390.129C564.718,389.452 573.867,386.619 581.985,380.855C582.668,380.37 583.409,379.152 584.301,379.982C585.164,380.784 584.078,381.611 583.648,382.38C582.285,384.808 580.084,386.264 577.777,387.67C565.237,395.311 552.256,401.868 537.577,404.337C530.115,405.592 522.605,405.983 515.227,404.115C510.792,402.991 506.673,404.565 502.424,404.82C490.983,405.507 479.875,403.977 468.934,400.846C461.536,398.729 454.264,395.994 446.334,396.935C444.93,397.102 444.826,396.424 445.381,395.24C446.914,391.97 446.694,391.078 443.155,390.176C439.86,389.336 436.622,386.756 432.956,389.103C430.381,386.496 427.099,387.457 424.053,387.417C421.275,387.381 418.541,387.931 415.826,388.528C414.34,388.855 414.341,389.357 415.114,390.612C417.375,394.278 420.475,395.765 424.732,395.03C425.71,394.862 427.204,394.134 427.541,395.83C427.795,397.104 426.615,397.796 425.639,398.373C424.446,399.08 423.09,399.043 421.748,399.12C416.077,399.451 410.45,398.764 404.817,398.373C389.92,397.338 375.744,400.334 362.17,406.192C347.766,412.409 334.719,420.639 324.545,432.916C322.764,435.064 322.755,436.854 324.179,438.993C326.607,442.642 330.242,444.449 334.275,445.605C340.859,447.494 347.52,446.76 354.164,446.018C363.243,445.004 372.248,443.034 381.426,443.308C391.912,443.622 401.53,446.702 409.25,454.114C418.385,462.883 420.058,473.769 417.489,485.674C415.254,496.037 411.547,505.751 405.053,514.279C402.877,517.136 401.457,520.525 399.02,523.212C398.056,524.274 398.49,525.238 398.953,526.325C405.445,541.544 402.19,555.177 391.604,567.179C378.939,581.536 362.176,588.489 343.859,592.25C336.313,593.8 328.576,594.188 321.05,595.936C317.983,596.649 315.831,598.102 314.03,600.826C301.555,619.693 284.358,633.049 264.264,642.979C243.971,653.007 222.338,658.62 200.198,662.566C180.605,666.058 160.851,667.486 140.958,666.892C133.348,666.665 125.773,665.955 118.311,664.434C113.819,663.517 109.87,661.179 106.074,658.732C89.599,648.116 79.49,633.052 75.194,614.004C74.658,611.628 74.79,609.748 76.843,607.671C84.559,599.862 94.396,598.317 104.557,597.568C107.933,597.32 111.344,597.454 114.735,597.55C116.715,597.606 117.131,596.829 117.464,594.884C118.885,586.575 116.274,579.208 113.181,571.718C105.64,553.462 98.229,535.155 87.804,518.287C73.935,495.847 56.105,477.15 34.347,462.204C31.724,460.402 29.09,458.556 26.757,456.408C21.6,451.66 21.243,447.992 24.015,441.871C32.639,422.827 45.145,406.601 60.281,392.44C88.641,365.905 120.588,345.124 158.044,333.716C173.535,328.998 189.446,326.2 205.679,326.113C215.573,326.061 225.08,328.205 233.601,333.623C235.156,334.611 236.089,335.717 236.669,337.793C238.593,344.67 238.45,351.527 238.279,358.559C237.82,377.364 237.743,396.18 239.135,414.97C239.492,419.784 239.759,424.6 240.295,429.403C240.522,431.427 241.454,432.319 243.282,432.651C251.347,434.12 258.527,438.126 266.207,440.701C267.925,441.276 268.599,442.639 266.891,443.866C265.313,445.001 264.821,446.63 264.112,448.187C258.28,461.007 255.101,474.61 252.278,488.323C251.476,492.22 250.453,496.066 249.504,500.05ZM139.164,513.687C139.358,513.66 139.551,513.632 139.744,513.604C139.587,512.393 139.42,511.184 139.274,509.972C137.467,494.972 148.698,480.202 164.687,479.727C168.831,479.603 172.84,480.547 175.257,484.295C177.722,488.117 179.53,492.3 179.45,497.003C179.285,506.697 175.26,515.135 170.486,523.23C169.16,525.478 168.714,527.385 169.407,529.857C171.461,537.178 173.459,544.52 175.258,551.908C175.912,554.595 176.996,554.811 179.34,553.863C185.916,551.204 192.561,548.702 199.465,547.003C200.93,546.643 201.734,545.72 202.455,544.561C205.445,539.754 208.651,535.097 212.328,530.787C213.908,528.935 213.295,527.943 211.259,527.183C209.241,526.429 207.161,525.74 205.308,524.673C199.356,521.247 193.047,519.467 186.149,519.854C185.205,519.907 183.767,520.317 183.503,519.014C183.238,517.711 184.489,517.082 185.607,516.761C186.661,516.458 187.333,515.907 187.015,514.796C186.369,512.537 185.166,510.152 182.827,509.935C180.204,509.691 180.98,508.578 181.262,507.154C183.189,497.421 186.647,488.182 190.366,479.034C195.86,465.517 202.235,452.354 206.531,438.356C208.467,432.048 209.678,425.596 210.81,419.116C211.404,415.715 212.172,415.328 215.015,416.946C216.206,417.625 216.57,417.039 216.662,416.124C217.185,410.951 217.41,405.822 213.909,401.382C213.335,400.655 212.017,399.853 213.24,398.842C214.311,397.957 215.134,399.138 215.811,399.811C219.626,403.604 220.61,408.557 219.116,413.24C217.14,419.438 219.616,422.688 224.649,425.208C225.382,425.575 226.04,426.089 226.757,426.489C229.731,428.145 232.861,429.442 236.113,430.444C236.713,430.63 237.418,430.799 237.633,429.971C237.814,429.274 237.864,428.401 236.769,428.424C236.058,428.44 235.682,427.895 235.13,427.725C232.527,426.923 230.459,422.054 232.186,420.03C233.11,418.948 233.042,418.128 232.837,417.05C232.531,415.436 232.197,413.825 231.89,412.211C228.983,396.96 226.528,381.65 226.055,366.094C226.019,364.891 225.479,363.411 227.571,362.118C229.359,380.097 230.921,397.73 235.101,414.96C234.641,410.376 233.959,405.821 233.446,401.248C232.942,396.76 232.494,392.258 232.235,387.751C231.97,383.14 231.246,378.506 231.878,373.9C232.474,369.562 231.543,364.945 233.971,360.882C234.451,370.86 234.021,380.818 235.293,391.301C235.254,378.089 235.213,365.458 235.809,352.834C235.87,351.542 237.333,348.707 233.722,349.155C233.641,349.165 233.343,348.463 233.368,348.11C233.471,346.694 233.327,345.275 234.061,343.905C234.878,342.378 236.499,340.233 232.551,340.759C231.91,340.845 231.103,340.072 230.447,339.594C222.06,333.478 212.414,331.786 202.384,332.018C191.967,332.258 181.77,334.248 171.705,336.9C167.514,338.004 167.564,337.971 168.83,342.242C170.076,346.442 171.725,350.556 171.681,355.056C171.673,355.891 171.838,357.251 171.109,357.193C168.628,356.996 169.843,358.462 169.919,359.404C170.002,360.426 170.194,361.44 170.273,362.463C170.349,363.437 170.854,364.911 169.513,365.053C168.176,365.195 168.373,363.553 168.227,362.666C167.138,356.056 165.302,349.651 163.391,343.241C162.451,340.09 161.066,339.822 158.266,340.746C146.329,344.689 134.741,349.458 123.537,355.134C104.633,364.711 87.233,376.532 71.492,390.731C64.696,396.861 58.141,403.239 52.589,410.585C51.03,412.648 50.703,413.996 52.829,415.961C55.533,418.461 57.888,421.358 60.257,424.198C74.258,440.982 84.56,460.076 94.558,479.352C95.119,480.434 96.574,481.982 94.966,482.831C93.299,483.712 92.963,481.512 92.425,480.514C86.866,470.192 81.245,459.908 75.086,449.928C68.105,438.616 60.353,427.879 51.491,417.948C49.749,415.996 48.738,415.922 47.592,418.342C47.148,419.28 46.859,420.536 45.261,420.758C45.005,418.139 47.809,416.563 47.562,413.274C41.086,421.282 35.764,429.185 31.981,438.122C32.579,431.315 36.19,425.944 39.918,420.724C43.739,415.374 47.879,410.247 51.998,405.117C55.957,400.185 60.416,395.686 64.748,391.08C47.816,405.584 34.688,423.185 25.348,443.404C24.369,445.523 24.505,447.292 25.73,449.189C28.032,452.752 31.385,455.127 34.831,457.383C52.019,468.64 66.924,482.369 79.535,498.584C81.931,501.666 84.222,504.829 86.88,508.381C86.655,506.85 85.297,505.787 86.485,505.048C87.921,504.153 88.347,505.874 88.915,506.662C95.66,516.028 101.689,525.811 106.325,536.424C111.933,549.264 115.885,562.691 120.494,575.885C121.201,577.91 121.507,580.701 122.971,581.673C124.627,582.773 126.747,580.343 128.808,579.87C129.007,579.824 129.191,579.721 129.384,579.65C136.213,577.147 136.157,577.164 134.171,570.189C131.886,562.162 128.931,554.388 125.638,546.731C125.233,545.789 124.123,544.383 125.536,543.781C126.909,543.195 127.162,544.996 127.619,545.896C129.09,548.799 130.431,551.769 131.89,554.858C132.96,552.11 133.739,553.174 134.571,554.754C136.953,559.282 137.796,564.337 139.465,569.39C139.697,568.438 139.52,567.235 140.323,567.324C142.377,567.549 141.151,570.001 142.371,570.941C145.084,569.357 147.625,567.55 150.423,566.335C153.095,565.173 153.037,563.809 151.883,561.594C150.127,558.224 148.525,554.766 146.984,551.29C139.441,534.275 132.12,517.171 126.361,499.447C125.905,498.043 125.417,497.06 123.547,497.58C114.863,499.995 108.106,496.573 103.034,489.854C92.944,476.487 92.879,462.075 99.796,447.378C103.935,438.585 109.958,435.747 119.658,436.338C136.325,437.355 145.487,453.595 143.941,467.453C142.933,476.494 139.223,484.426 133.184,491.227C132.17,492.37 131.909,493.381 132.441,494.835C134.733,501.099 136.932,507.399 139.164,513.687ZM84.304,629.512C84.936,630.695 85.195,631.237 85.505,631.747C93.003,644.089 103.088,653.655 116.061,660.081C117.78,660.933 119.324,662.156 121.419,662.274C136.292,663.112 151.135,663.975 166.068,663.108C185.214,661.996 204.071,659.231 222.683,654.739C242.469,649.966 261.5,643.229 278.858,632.342C280.138,631.539 281.634,631.053 281.597,628.84C281.578,627.652 282.944,626.425 284.764,627.533C285.653,628.075 289.435,625.26 288.928,624.702C287.24,622.844 289.326,622.537 289.978,622.022C299.413,614.563 307.115,605.589 313.725,595.584C320.21,585.769 323.42,574.501 325.774,563.417C330.845,539.526 323.084,519.594 303.915,504.086C297.226,498.674 289.771,497.352 281.685,498.01C268.124,499.114 256.148,504.414 245.889,513.127C224.852,530.994 208.248,552.097 199.325,578.662C195.396,590.357 191.281,602.046 184.564,612.505C171.97,632.116 154.328,643.362 130.598,643.283C114.231,643.229 99.03,638.449 84.304,629.512ZM398.525,261.245C396.874,261.291 396.046,262.11 395.11,262.651C382.755,269.789 373.601,279.966 366.618,292.309C362.157,300.193 357.3,307.843 350.381,313.902C349.426,314.738 349.235,315.727 349.196,316.916C348.91,325.934 343.055,333.229 334.375,335.448C332.077,336.035 329.799,336.071 328.018,334.279C326.74,332.992 325.96,333.498 325.025,334.578C319.641,340.795 314.187,346.95 309.145,353.457C308.111,354.791 308.077,355.913 308.784,357.392C310.561,361.107 311.955,364.975 312.93,368.987C313.076,369.585 313.138,370.497 313.526,370.693C316.493,372.182 315.938,375.145 316.582,377.602C317.289,380.301 316.939,383.087 317.206,385.827C317.709,382.55 317.405,379.268 317.375,375.989C317.368,375.303 317.23,374.338 318.2,374.273C319.116,374.211 319.258,375.201 319.32,375.847C319.55,378.242 319.661,380.648 319.847,383.519C330.305,369.262 341.021,355.8 354.954,345.292C343.754,351.077 333.969,358.765 324.79,367.276C340.573,348.135 362.057,337.707 384.281,328.366C373.402,332.1 362.464,335.583 351.912,340.175C362.985,332.232 376.087,328.906 388.531,324.13C401.043,319.329 413.672,314.832 426.249,310.202C421.184,309.845 416.353,309.111 411.585,307.855C408.409,307.018 405.169,306.41 402.025,305.471C400.529,305.024 398.01,306.777 397.772,304.805C397.552,302.983 400.576,303.425 402.227,302.296C396.887,302.558 391.985,303.158 387.963,306.711C387.126,307.451 386.007,308.437 385.038,307.384C384.141,306.408 385.064,305.269 385.781,304.382C387.083,302.772 388.636,301.432 390.343,300.26C395.468,296.741 399.811,292.393 403.844,287.689C404.779,286.6 405.113,285.234 406.24,284.192C410.781,279.997 413.355,274.268 417.438,269.683C414,272.388 411.702,276.119 408.521,279.515C408.287,278.036 408.936,277.441 409.378,276.791C415.081,268.411 422.308,261.495 430.205,255.191C427.179,256.524 424.947,259.162 421.732,260.526C421.732,259.926 421.648,259.659 421.744,259.552C424.898,256.03 428.979,253.636 432.575,250.597C411.333,256.829 390.634,263.995 376.103,282.331C381.444,273.141 389.479,266.936 398.525,261.245ZM395.282,500.531C394.819,490.625 394.143,480.642 388.178,472.243C379.834,460.496 366.972,456.754 353.702,454.816C344.799,453.516 335.909,455.657 327.188,457.811C324.308,458.523 321.417,458.959 318.352,458.562C316.277,458.294 314.241,455.463 312.67,457.168C311.377,458.571 311.67,461.436 311.26,463.651C311.222,463.853 311.162,464.052 311.141,464.256C309.77,476.956 312.745,483.508 325.103,487.263C333.666,489.865 342.334,492.043 350.958,494.403C365.761,498.454 380.015,503.588 391.174,514.811C392.62,516.266 393.457,515.847 393.879,514.012C394.896,509.584 395.215,505.081 395.282,500.531ZM256.904,458.477C255.397,463.52 253.935,468.141 252.642,472.809C251.326,477.56 250.08,482.333 248.978,487.138C247.913,491.786 247.07,496.487 246.129,501.164C246.62,501.054 246.747,500.88 246.797,500.685C251.632,481.921 254.339,462.517 263.546,445.069C264.1,444.018 263.714,443.338 262.667,442.881C258.924,441.252 255.191,439.599 251.198,437.842C250.832,441.787 252.543,444.623 254.748,447.248C255.805,448.505 256.994,449.649 258.088,450.876C258.613,451.464 258.796,452.153 258.186,452.81C257.547,453.498 256.848,453.226 256.259,452.759C252.244,449.579 249.042,445.722 249.193,440.387C249.269,437.724 248.484,437.079 246.182,436.636C236.619,434.795 227.502,431.784 219.651,425.74C216.797,423.542 216.845,423.557 215.701,427.151C212.551,437.042 209.349,446.917 205.149,456.427C204.622,457.62 204.343,459.115 202.71,459.682C202.258,458.093 203.028,457.021 203.481,455.929C207.615,445.95 211.06,435.728 214.231,425.411C214.618,424.15 215.198,422.883 214.901,421.504C214.745,420.777 214.387,420.003 213.549,420.074C212.785,420.139 212.887,420.97 212.81,421.563C211.252,433.501 207.083,444.661 202.537,455.694C199.462,463.16 196.237,470.564 193.079,477.996C194.739,475.638 195.879,473.045 197.11,470.495C199.859,464.807 199.878,464.815 201.721,463.797C201.828,465.138 201.041,466.154 200.494,467.219C194.583,478.727 190.67,490.927 187.87,503.513C187.618,504.647 186.838,506.012 188.549,506.679C191.82,507.953 192.247,510.705 191.793,513.533C191.439,515.733 192.331,516.256 194.116,516.429C198.705,516.873 202.837,518.689 206.904,520.706C207.826,521.164 208.782,521.553 209.723,521.974C205.78,518.987 201.316,517.207 196.775,515.569C195.833,515.228 194.12,515.162 194.543,513.609C194.944,512.137 196.453,512.772 197.494,512.927C204.478,513.972 210.663,516.946 216.126,521.288C218.251,522.978 219.446,522.71 221.251,520.92C226.364,515.848 231.821,511.149 237.927,507.279C239.605,506.215 240.547,504.838 240.99,502.9C241.883,498.996 243.059,495.155 243.911,491.244C244.431,488.855 246.863,487.906 247.378,485.271C248.973,477.104 251.5,469.151 254.555,461.393C254.937,460.426 254.902,459.107 256.904,458.477ZM316.871,427.366C317.162,425.478 318.294,425.015 319.118,424.346C330.468,415.139 343.131,408.173 356.603,402.65C358.7,401.79 359.19,400.97 358.331,398.798C356.82,394.98 355.622,391.022 355.623,386.842C355.623,385.931 355.157,384.725 356.745,384.217C357.961,386.746 358.077,389.566 358.98,392.144C359.829,394.563 360.751,396.957 361.68,399.347C361.868,399.834 362.279,400.253 362.89,399.979C363.516,399.699 363.369,399.163 363.17,398.672C362.9,398.006 362.596,397.354 362.32,396.69C358.964,388.623 356.885,380.293 357.564,371.488C357.795,368.476 358.502,365.501 358.997,362.483C358.571,362.458 358.344,362.379 358.176,362.446C357.511,362.715 356.854,363.007 356.214,363.332C338.782,372.217 325.624,385.643 315.225,401.981C314.687,402.827 314.263,403.832 314.099,404.815C312.521,414.271 313.816,423.43 317.108,432.361C317.35,433.017 317.428,433.936 318.204,434.092C319.233,434.3 319.47,433.215 319.924,432.601C322.982,428.465 326.097,424.381 329.773,420.761C331.213,419.343 332.649,417.92 334.087,416.5C333.936,416.346 333.784,416.191 333.634,416.037C328.17,419.73 322.706,423.423 316.871,427.366ZM390.417,524.453C390.035,522.832 390.701,521.842 390.956,520.786C391.088,520.24 390.95,519.725 390.406,519.507C390.218,519.431 389.74,519.614 389.662,519.796C388.506,522.46 386.133,524.719 386.941,528.045C387.802,531.592 387.92,535.3 387.246,538.763C386.368,543.276 386.768,547.984 381.81,551.564C376.263,555.568 370.922,559.841 364.253,563.428C371.897,562.534 378.07,560.24 382.542,554.322C381.855,557.153 380.204,559.05 378.242,560.691C374.107,564.15 369.256,566.299 363.996,566.843C355.097,567.763 346.448,570.046 337.6,571.165C336.554,571.297 335.562,571.408 334.909,572.376C332.284,576.261 330.289,580.424 329.219,585.011C331.907,580.934 332.711,575.692 337.149,572.71C335.403,576.057 334.064,579.547 332.62,582.991C331.905,584.696 332.378,585.23 334.194,584.966C339.078,584.252 344,583.992 348.932,584.025C364.187,584.126 377.227,578.653 388.18,568.198C391.121,565.39 394.85,562.565 395.278,558.43C395.573,555.581 396.467,553.01 397.001,550.302C397.582,547.345 397.826,544.41 397.28,541.434C397.092,540.407 396.799,539.014 397.656,538.524C399.878,537.255 398.852,535.667 398.412,534.132C397.528,531.065 396.305,528.145 394.725,525.348C393.643,523.432 392.721,521.852 390.417,524.453ZM427.75,368.486C428.962,368.067 428.937,367.173 429.002,366.399C429.326,362.5 429.933,358.641 431.072,354.905C431.764,352.634 430.814,352.206 428.858,352.223C425.263,352.253 421.616,352.543 418.086,352.047C411.942,351.184 407.273,353.507 402.825,357.421C392.953,366.108 386.389,376.215 387.202,390.018C387.369,392.859 388.396,393.456 391.025,393.093C397.565,392.191 404.12,392.197 410.626,393.57C411.652,393.786 412.705,393.876 414.27,394.098C413.129,392.407 412.193,391.524 411.001,390.861C410.419,390.537 409.393,390.533 409.455,389.601C409.519,388.621 410.527,388.455 411.254,388.16C414.019,387.038 416.84,386.073 419.814,385.692C421.734,385.447 422.75,384.726 422.369,382.516C422.022,380.504 421.983,378.43 421.933,376.379C421.883,374.351 421.74,372.265 423.315,370.492C423.878,375.125 423.87,379.78 424.798,384.338C424.825,375.421 425.311,366.58 428.246,358.054C428.896,361.545 427.232,364.917 427.75,368.486ZM112.331,451.3C112.567,451.451 112.802,451.602 113.038,451.753C112.743,452.272 112.488,452.818 112.145,453.305C107.918,459.308 105.501,466.002 104.441,473.234C104.227,474.694 104.093,476.038 105.067,477.336C108.094,481.369 111.788,484.607 116.522,486.383C121.14,488.113 125.397,487.394 128.957,483.7C135.557,476.854 137.805,462.737 133.737,454.193C132.918,452.472 131.955,452.173 130.358,452.917C126.97,454.494 123.862,456.439 121.446,459.363C120.928,459.989 120.577,460.931 119.136,460.962C121.471,456.369 124.9,453.43 128.988,451.128C129.888,450.621 131.27,450.395 130.432,448.701C128.082,443.951 118.033,439.154 112.593,440.246C107.292,441.31 103.443,444.007 101.487,449.306C98.636,457.031 98.466,464.558 102.322,472.745C104.156,464.317 107.283,457.326 112.331,451.3ZM492.654,401.597C481.869,398.6 472.845,390.192 459.855,392.051C461.84,389.796 463.682,389.732 465.417,389.569C471.496,388.996 476.921,391.237 482.284,393.644C487.162,395.832 492.054,397.963 497.319,399.073C498.354,399.291 499.375,399.594 500.875,399.082C494.955,395.329 490.396,390.74 485.71,386.282C480.997,381.797 475.697,378.175 469.772,375.363C465.632,373.4 460.83,373.74 456.984,371.068C456.31,372.266 457.155,373.183 457.193,374.175C457.232,375.156 457.229,376.177 456.063,376.369C454.991,376.546 454.89,375.435 454.522,374.749C453.814,373.431 454.111,371.702 452.641,370.316C451.485,372.989 450.622,373.758 448.467,370.828C446.991,368.821 443.854,370.241 441.523,370.857C439.577,371.371 440.582,373.035 440.517,374.248C440.465,375.225 440.988,376.625 439.626,376.834C438.264,377.043 438.479,375.45 437.995,374.642C437.582,373.951 438.122,372.254 436.738,372.685C435.43,373.092 433.214,372.859 433.097,374.87C432.934,377.723 433.161,380.607 433.364,383.469C433.462,384.833 434.606,385.139 435.807,385.356C439.039,385.939 442.281,386.523 445.365,387.706C447.631,388.577 449.442,389.887 448.963,392.69C448.643,394.562 449.819,394.498 450.978,394.428C456.837,394.074 462.39,395.578 467.904,397.237C475.994,399.669 484.245,401.163 492.654,401.597ZM365.626,387.153C365.782,387.124 365.939,387.096 366.095,387.067C366.095,386.764 366.073,386.46 366.099,386.16C366.228,384.64 364.619,382.194 366.572,381.837C368.286,381.524 367.703,384.431 368.465,385.741C368.81,386.334 368.259,388.146 369.883,387.344C371.475,386.557 371.672,387.654 372.016,388.577C372.589,390.116 373.155,391.669 373.545,393.261C374.039,395.273 374.596,396.82 377.238,395.825C379.311,395.045 381.965,395.498 381.313,391.615C380.167,384.782 382.095,378.386 385.383,372.384C385.567,372.049 385.86,371.655 386.574,372.274C382.952,379.156 382.562,386.63 383.766,394.333C385.493,390.675 384.327,386.53 385.361,382.728C386.473,378.639 387.736,374.643 389.859,370.966C391.975,367.303 394.551,363.988 397.477,360.919C400.347,357.908 403.595,355.32 406.93,352.686C405.882,351.911 405.036,352.149 404.25,352.162C391.016,352.376 378.062,354.167 365.637,358.994C361.054,360.775 360.086,362.222 360.537,367.205C361.138,365.838 360.99,364.064 362.679,363.054C361.981,367.45 361.943,371.818 362.113,376.188C362.139,376.851 361.879,378.168 362.529,378.08C365.558,377.669 364.216,380.023 364.524,381.143C365.064,383.098 365.277,385.145 365.626,387.153ZM154.304,485.396C149.505,487.141 146.412,490.518 144.879,494.033C140.591,503.863 140.884,513.388 148.983,521.292C153.731,525.925 157.495,526.504 164.085,523.593C166.276,522.625 168.252,521.161 169.543,519.176C174.052,512.247 176.023,504.608 175.306,496.339C175.167,494.74 174.342,494.018 172.56,494.467C167.385,495.773 162.435,497.361 159.674,502.514C159.449,502.935 159.132,503.428 158.031,502.772C160.941,495.984 167.055,493.468 173.877,491.403C172.804,490.656 172.386,491.029 171.923,491.138C170.488,491.478 168.196,492.292 167.873,490.846C167.478,489.077 169.846,489.047 171.311,488.746C171.453,488.717 171.548,488.459 171.757,488.189C170.201,486.061 168.059,484.679 165.58,483.911C160.002,482.182 156.291,484.041 154.234,489.485C152.586,493.846 151.762,498.36 151.68,503.032C151.587,508.305 152.357,513.465 153.418,518.604C153.599,519.48 153.877,520.728 152.796,521.037C151.529,521.398 151.509,520.067 151.319,519.241C149.839,512.803 149.034,506.343 149.957,499.703C150.627,494.902 152.254,490.428 154.304,485.396ZM307.941,471.502C307.47,461.336 309.792,451.744 314.156,442.599C314.752,441.351 314.667,440.341 314.006,439.139C311.495,434.575 310.075,429.673 309.804,424.455C309.743,423.285 309.043,421.463 310.561,421.317C311.888,421.19 311.356,423.108 311.531,424.133C312.35,428.918 313.441,433.599 316.298,437.673C314.512,432.986 313.105,428.223 312.232,423.272C311.37,418.386 312.2,413.423 311.536,407.854C307.513,414.198 304.395,420.184 301.294,426.192C295.977,436.49 291.463,447.02 291.1,458.837C290.747,470.309 292.269,472.387 303.056,476.125C305.125,476.842 305.872,476.807 305.309,474.259C303.477,465.982 304.719,457.925 307.48,450.036C307.809,449.094 307.899,447.864 309.725,447.49C307.853,455.6 306.089,463.413 307.941,471.502ZM397.107,514.664C398.281,512.687 400.648,512.298 401.95,510.379C410.71,497.459 414.002,483.527 410.39,468.168C410.118,467.01 409.329,465.569 410.595,464.746C412.127,463.749 411.127,463.058 410.609,462.311C405.711,455.262 398.983,450.861 390.8,448.454C388.498,447.776 387.898,448.769 387.546,450.678C386.763,454.944 386.561,459.232 386.883,463.568C387.582,459.096 388.526,454.708 390.734,450.667C390.46,455.773 388.887,460.713 389.431,466.267C389.756,461.255 390.119,460.296 392.762,458.549C390.038,466.168 392.788,472.443 395.305,478.89C397.507,484.533 398.14,490.579 397.992,496.672C398.537,491.915 397.881,487.216 397.641,482.499C397.582,481.354 397.07,479.42 398.488,479.28C400.218,479.109 399.979,481.25 400.102,482.378C400.742,488.21 400.693,494.057 400.064,499.902C399.525,504.899 398.157,509.728 397.107,514.664ZM131.827,638.748C134.362,638.748 136.037,638.964 137.64,638.716C159.56,635.32 175.792,623.832 186.078,604.175C190.226,596.246 193.207,587.785 196.425,579.451C203.892,560.111 213.703,542.138 227.737,526.769C230.815,523.397 230.24,520.138 230.252,516.058C225.164,520.066 221.124,524.284 217.259,528.677C206.934,540.415 199.473,553.847 194.633,568.626C191.5,578.191 188.58,587.822 184.972,597.226C181.73,605.679 177.168,613.283 170.714,619.696C160.129,630.212 147.122,635.852 131.827,638.748ZM182.164,596.402C175.52,599.278 168.369,600.292 161.522,602.361C150.853,605.585 140.66,609.864 131.048,615.531C128.936,616.776 128.048,618.052 129.442,620.469C131.094,623.334 131.987,626.53 132.524,629.786C132.764,631.243 133.348,632.05 134.884,632.005C142.683,631.776 150.089,629.994 157.069,626.532C156.044,626.637 155.069,626.952 154.072,627.157C153.427,627.291 152.498,627.733 152.261,626.737C152.053,625.86 152.993,625.629 153.631,625.346C154.193,625.097 154.785,624.915 155.369,624.718C163.578,621.953 170.194,616.859 175.977,610.571C177.556,608.854 178.71,606.867 179.742,603.942C164.51,611.177 147.557,610.972 133.531,619.793C136.832,615.591 141.619,613.871 146.079,611.617C140.743,612.983 135.981,615.626 130.803,618.913C131.508,616.641 132.77,616.052 133.821,615.302C139.591,611.186 146.127,608.765 152.857,606.781C160.832,604.43 168.982,602.66 176.72,599.525C178.678,598.732 180.582,597.877 182.164,596.402ZM455.321,360.802C455.321,362.281 455.284,363.189 455.327,364.094C455.458,366.821 458.443,369.058 460.593,367.601C464.238,365.131 468.465,364.137 472.309,362.197C479.553,358.54 483.401,351.5 489.086,346.319C489.956,345.526 490.602,344.486 491.783,343.026C490.686,343.462 490.225,343.619 489.786,343.823C481.056,347.869 471.975,350.638 462.381,351.773C454.498,352.706 446.606,352.92 438.693,352.692C436.545,352.63 435.424,353.396 435.068,355.482C434.585,358.315 434.004,361.131 433.531,363.966C433.343,365.098 432.485,366.582 434.105,367.207C435.563,367.77 437.152,367.778 438.09,365.997C438.611,365.008 439.024,364.428 439.919,365.962C441.368,368.443 447.217,368.117 448.749,365.603C449.113,365.005 449.238,364.129 450.173,364.27C450.943,364.387 450.885,365.166 451.028,365.743C451.181,366.36 451.372,367.024 452.131,367.008C453.175,366.987 453.049,366.087 453.125,365.404C453.294,363.877 453.452,362.355 455.321,360.802ZM384.633,535.002C383.241,535.002 382.565,535.74 381.958,536.346C378.046,540.25 373.145,542.587 368.374,545.157C357.391,551.071 345.853,555.704 333.829,558.841C330.275,559.768 329.598,561.332 329.365,564.221C329.182,566.485 329.782,567.361 332.314,566.988C337.279,566.257 342.287,565.725 347.295,565.396C359.726,564.579 370.143,559.136 379.341,551.24C384.201,547.066 385.06,541.178 384.633,535.002ZM95.633,629.866C91.414,626.321 87.431,622.648 84.769,617.776C84.257,616.839 83.316,615.601 84.653,614.797C85.841,614.082 86.394,615.518 87.003,616.231C90.146,619.912 93.411,623.44 97.474,626.163C98.891,627.111 99.984,627.234 101.229,625.896C103.266,623.708 105.611,621.835 108.164,620.297C109.971,619.207 109.881,618.221 108.826,616.601C107.092,613.94 105.591,611.123 104.059,608.336C103.64,607.572 102.912,606.498 103.951,605.856C105.194,605.087 105.348,606.576 105.851,607.21C106.229,607.688 106.454,608.284 106.793,608.797C108.438,611.277 110.083,613.758 111.764,616.213C112.175,616.813 112.747,617.389 113.564,616.878C114.421,616.343 114.024,615.654 113.648,615.015C113.388,614.573 113.071,614.157 112.861,613.692C112.432,612.739 111.039,611.572 112.354,610.771C113.707,609.947 113.947,611.867 114.688,612.567C114.761,612.635 114.804,612.736 114.862,612.821C116.783,615.604 117.655,615.741 121.549,613.656C124.211,612.231 121.156,611.238 121.176,609.976C121.192,608.98 120.605,607.971 120.632,606.978C120.693,604.742 119.646,603.908 117.517,603.737C109.273,603.075 101.392,604.616 93.677,607.374C92.435,607.818 91.229,608.701 89.055,608.219C93.148,605.12 97.462,603.979 101.499,602.258C94.238,602.907 87.506,605.165 81.205,608.873C82.163,606.726 84.288,605.849 85.64,604.202C84.643,604.397 83.793,604.748 82.978,605.167C77.94,607.763 77.155,609.812 79.534,615.021C82.814,622.202 89.053,626.271 95.633,629.866ZM304.549,413.232C306.287,407.169 309.612,401.793 311.753,395.924C311.998,395.253 312.19,394.536 312.253,393.827C313.286,382.186 312.194,370.844 307.547,359.983C306.604,357.778 305.807,357.831 304.508,359.724C300.958,364.899 297.681,370.241 294.383,375.576C292.525,378.581 291.969,381.21 294.233,384.218C295.136,385.418 295.572,386.983 296.155,388.409C300.1,398.078 301.411,408.189 300.968,419.081C301.92,417.167 301.866,415.633 301.942,414.115C302.464,403.651 301.264,393.398 298.292,383.344C298.001,382.358 297.006,380.739 298.311,380.331C299.884,379.84 299.88,381.846 300.219,382.85C303.537,392.685 305.011,402.781 304.549,413.232ZM397.089,299.763C401.508,299.107 405.913,299.276 410.305,299.595C423.308,300.539 436.307,301.407 449.334,300.03C464.721,298.404 479.397,294.527 492.709,286.327C494.112,285.462 495.537,284.631 496.951,283.785C489.35,286.036 481.824,287.978 474.132,289.284C457.397,292.124 440.427,292.2 423.566,293.56C414.432,294.296 405.484,295.791 397.089,299.763ZM129.518,595.4C129.855,593.425 130.875,592.982 131.659,592.379C135.964,589.067 140.83,586.968 146.115,585.787C153.581,584.12 161.161,583.947 168.769,583.859C174.722,583.791 180.64,583.173 186.489,581.95C188.907,581.444 187.69,579.635 187.597,578.605C187.445,576.907 186.164,578.099 185.503,578.357C180.709,580.217 175.734,580.67 170.667,580.356C162.377,579.842 154.123,579.023 145.776,579.776C136.992,580.568 128.945,583.249 121.448,587.788C120.302,588.482 119.49,589.311 119.73,590.752C120.167,593.382 120.449,596.05 121.432,598.558C122.508,601.303 124.292,601.847 126.569,600.037C133.615,594.431 141.658,590.964 150.324,588.786C151.07,588.599 151.982,588.719 152.619,587.814C144.311,588.104 136.713,590.177 129.518,595.4ZM142.923,523.347C147.324,535.809 152.084,547.96 157.154,559.991C157.933,561.84 158.725,562.305 160.581,561.399C163.07,560.182 165.631,559.055 168.264,558.211C170.724,557.423 171.171,556.224 170.26,553.88C167.916,547.845 165.64,541.778 163.578,535.643C162.502,532.442 161.213,530.22 157.316,531.579C156.79,531.763 156.102,531.501 155.493,531.418C150.046,530.67 146.047,527.678 142.923,523.347ZM534.253,400.438C531.262,400.425 529.04,400.21 526.9,399.578C526.179,399.365 524.893,399.364 525.059,398.368C525.262,397.144 526.565,397.545 527.372,397.699C531.248,398.438 535.16,398.36 539.049,398.14C546.445,397.72 553.435,395.647 560.152,392.58C533.853,395.659 509.263,389.037 484.947,379.593C499.562,394.339 521.918,403.999 534.253,400.438ZM338.518,541.927C337.903,545.151 337.292,548.201 336.744,551.263C336.189,554.357 336.524,554.657 339.675,553.917C347.617,552.05 354.944,548.567 362.324,545.232C363.167,544.851 363.973,544.422 364.258,543.4C365.142,540.228 366.345,537.184 367.908,534.279C368.433,533.301 368.547,532.431 366.941,532.624C357.892,533.708 348.764,534.225 339.881,536.482C338.521,536.829 337.336,537.297 336.957,538.831C336.283,541.555 335.601,544.276 334.922,546.998C335.668,546.15 335.965,545.178 336.355,544.244C336.722,543.364 336.724,542.165 338.518,541.927ZM559.402,305.215C557.627,305.58 555.827,305.859 554.078,306.324C533.967,311.684 517.082,322.26 503.098,337.644C496.745,344.633 491.014,352.195 483.852,358.449C480.558,361.326 476.976,363.799 473.491,366.446C477.461,365.231 480.926,363.101 484.212,360.67C492.65,354.425 500.816,347.864 507.924,340.083C515.606,331.673 524.427,324.682 534.145,318.75C542.297,313.775 550.542,309.011 559.402,305.215ZM293.211,434.109C294.295,433.915 294.399,433.236 294.715,432.735C298.548,426.658 297.009,419.984 296.704,413.504C296.482,408.787 295.33,404.164 294.304,399.55C294.106,398.656 293.681,397.478 294.897,397.215C295.923,396.994 295.95,398.229 296.172,398.972C296.588,400.368 296.963,401.776 297.355,403.179C296.523,397.027 294.825,391.128 292.296,385.484C291.917,384.638 291.861,382.904 290.73,383.285C289.297,383.768 290.506,384.848 290.868,385.744C291.101,386.319 290.796,387.137 290.664,387.832C288.819,397.576 288,407.365 289.301,417.257C290.06,423.022 291.004,428.735 293.211,434.109ZM186.544,568.761C187.772,566.44 187.861,563.546 190.54,561.999C189.577,565.574 188.614,569.149 187.652,572.725C187.906,572.788 188.16,572.85 188.414,572.913C189.747,567.787 191.079,562.661 192.547,557.014C179.127,561.543 167.033,567.371 155.766,575.037C164.119,575.026 172.401,575.891 180.678,574.85C182.491,574.621 183.292,573.855 183.71,572.054C184.19,569.985 184.083,567.575 185.989,565.983C187.112,566.846 185.946,567.872 186.544,568.761ZM153.491,591.396C152.948,591.396 152.552,591.346 152.172,591.403C142.001,592.935 132.922,597.004 124.805,603.268C122.241,605.246 122.159,606.711 124.339,609.435C126.415,612.027 128.251,612.419 130.494,610.518C135.364,606.395 140.544,602.708 146.024,599.459C147.89,598.354 149.294,597.108 149.778,594.895C149.988,593.938 150.219,592.722 151.845,592.449C151.757,593.659 151.685,594.639 151.555,596.424C152.497,594.359 153.313,593.104 153.491,591.396ZM104.23,482.437C104.245,484.541 105.645,485.583 106.672,486.731C114.499,495.485 123.873,496.323 131.981,488.683C138.679,482.37 141.048,474.2 140.542,465.191C140.316,461.176 139.549,457.205 137.211,453.739C140.504,465.309 137.487,475.464 130.237,484.553C124.743,491.44 117.654,492.37 110.384,487.372C108.306,485.943 106.433,484.217 104.23,482.437ZM172.582,590.449C156.012,595.586 141.707,603.204 128.619,613.853C130.004,614.542 130.481,613.821 131.027,613.455C140.763,606.923 151.461,602.523 162.653,599.256C165.3,598.483 167.81,597.84 168.018,594.396C168.059,593.716 168.395,592.764 169.506,592.801C170.181,593.761 169.089,594.97 170.049,596.03C170.775,594.429 171.447,592.949 172.582,590.449ZM288.577,428.89C285.494,415.12 285.249,401.393 288.803,387.668C284.848,393.794 278.859,413.724 278.699,420.755C278.688,421.267 278.676,421.79 278.761,422.291C279.029,423.856 282.575,426.788 283.741,426.173C285.498,425.246 284.138,423.596 283.979,422.387C283.342,417.572 283.315,412.76 283.609,407.938C283.658,407.124 283.551,405.74 284.796,405.841C285.826,405.925 285.448,407.168 285.471,407.925C285.555,410.594 285.397,413.282 285.654,415.932C286.083,420.349 286.471,424.809 288.577,428.89ZM120.858,630.805C118.604,631.365 117.42,633.257 115.129,633.472C115.802,631.393 117.852,630.868 118.805,629.278C116.992,629.344 116.019,631.245 114.227,630.983C114.217,628.785 118.017,629.123 117.035,626.865C116.34,625.267 114.629,624.111 113.376,622.754C113.168,622.527 112.956,622.297 112.793,622.038C111.953,620.715 110.947,620.692 109.662,621.453C107.174,622.925 104.976,624.771 102.726,626.558C101.025,627.91 101.419,628.764 103.193,629.622C106.058,631.009 108.999,632.209 111.909,633.482C115.635,635.111 118.381,634.364 120.858,630.805ZM367.484,287.499C360.093,295.237 353.122,303.36 344.469,309.999C349.454,313.019 349.469,313.034 353.22,308.994C359.133,302.625 363.205,295.011 367.484,287.499ZM319.545,436.433C330.143,422.05 344.23,411.994 360.055,404.074C341.572,408.684 329.276,420.982 319.545,436.433ZM379.093,446.537C375.871,452.988 377.239,458.017 382.595,461.121C383.942,461.902 384.658,462.035 384.619,460.163C384.548,456.638 385.336,453.235 386.151,449.841C386.434,448.66 386.679,447.509 384.989,447.293C383.528,447.105 382.036,446.925 381.76,449.05C381.614,450.165 381.364,451.275 381.058,452.358C380.894,452.934 380.536,453.556 379.759,453.36C379.144,453.204 379.234,452.579 379.138,452.092C378.807,450.416 380.063,448.748 379.093,446.537ZM324.935,454.098C332.02,452.705 338.592,451.411 345.164,450.119C339.374,449.813 333.704,449.357 328.408,446.813C327.584,446.417 327.013,446.662 326.979,447.69C326.912,449.762 325.969,451.593 324.935,454.098ZM351.264,587.396C348.703,587.396 346.059,586.982 343.6,587.482C338.67,588.485 332.988,586.018 328.802,590.567C328.673,590.707 328.255,590.651 327.998,590.584C327.677,590.5 327.778,589.272 327.085,590.213C326.874,590.5 326.807,591.034 326.912,591.382C327.111,592.035 327.744,591.873 328.223,591.782C335.86,590.338 343.655,589.774 351.264,587.396ZM115.955,355.715C99.933,364.18 85.194,374.513 72.108,387.142C85.771,375.357 100.353,364.861 115.955,355.715ZM158.073,566.856C151.59,568.067 146.214,571.162 141.318,576.35C149.43,576.64 152.543,569.689 158.073,566.856ZM112.2,558.877C107.971,545.453 102.556,532.573 94.69,520.814C101.43,533.088 106.734,546.02 112.2,558.877ZM151.42,575.265C154.14,573.452 156.781,571.502 159.6,569.859C164.127,567.219 168.776,564.79 173.361,562.249C173.952,561.922 174.94,561.588 174.472,560.721C174.002,559.849 173.233,560.51 172.612,560.824C171.424,561.424 170.23,562.011 169.043,562.61C162.519,565.905 156.539,569.993 151.42,575.265ZM145.622,539.761C142.308,530.63 138.997,521.499 135.667,512.374C135.469,511.833 135.287,510.964 134.556,511.137C133.497,511.389 133.955,512.28 134.194,512.909C137.638,522.01 141.358,530.995 145.622,539.761ZM126.014,615.64C123.576,615.511 121.834,616.456 119.986,616.917C118.954,617.174 118.536,617.744 119.303,618.646C120.686,620.275 122.113,621.868 123.567,623.432C123.989,623.887 124.605,624.148 125.237,623.827C125.987,623.444 125.709,622.774 125.526,622.223C124.82,620.094 125.085,618.011 126.014,615.64ZM349.258,531.047C346.406,531.373 343.55,531.651 340.707,532.038C337.54,532.47 334.483,533.357 331.545,534.615C330.78,534.942 329.942,535.4 330.372,536.438C330.857,537.614 331.726,537.023 332.435,536.668C337.808,533.979 343.581,532.576 349.258,531.047ZM196.233,552.572C189.125,553.119 177.942,557.649 176.942,560.463C183.493,557.563 189.869,555.051 196.233,552.572Z" style="fill:rgb(234,243,246);"/>
        </g>
        <g transform="matrix(0.52974,0,0,0.52974,17.2295,159.518)">
            <path d="M188.022,429.579C188.059,430.616 188.069,431.649 187.081,431.78C185.969,431.926 185.983,430.77 185.806,430.018C181.489,411.725 176.609,393.579 171.726,375.433C171.475,374.497 170.85,373.118 172.213,372.785C173.554,372.457 173.607,374.036 173.891,374.914C179.105,391.052 183.322,407.456 186.851,424.039C187.256,425.946 187.657,427.855 188.022,429.579Z" style="fill:rgb(234,243,246);"/>
        </g>
        <g transform="matrix(0.52974,0,0,0.52974,17.2295,159.518)">
            <path d="M184.722,369.983C184.765,368.913 184.583,367.766 185.554,367.638C186.842,367.468 186.705,368.774 186.843,369.603C189.109,383.189 192.233,396.578 196.089,409.798C196.146,409.995 196.192,410.196 196.236,410.397C196.479,411.466 197.181,412.904 195.68,413.292C194.328,413.642 194.328,411.998 194.055,411.134C190.186,398.874 187.324,386.376 185.3,373.683C185.09,372.365 184.888,371.047 184.722,369.983Z" style="fill:rgb(234,243,246);"/>
        </g>
        <g transform="matrix(0.52974,0,0,0.52974,17.2295,159.518)">
            <path d="M200.354,368.707C201.385,369.01 201.147,370.018 201.249,370.728C202.135,376.93 203.3,383.07 205.041,389.094C205.212,389.685 205.374,390.279 205.539,390.872C205.775,391.723 205.836,392.644 204.85,392.947C203.714,393.296 203.527,392.171 203.285,391.474C201.287,385.733 199.979,379.838 199.508,373.769C199.413,372.543 199.306,371.313 199.301,370.084C199.297,369.469 199.532,368.867 200.354,368.707Z" style="fill:rgb(234,243,246);"/>
        </g>
        <g transform="matrix(0.52974,0,0,0.52974,17.2295,159.518)">
            <path d="M125.463,659.737C125.998,657.846 127.471,657.386 128.593,656.684C139.918,649.588 152.502,645.878 165.441,643.203C182.158,639.745 199.149,638.275 216.077,636.349C238.88,633.754 261.525,630.448 282.731,620.924C283.492,620.582 284.558,619.676 285.159,620.767C285.654,621.665 284.577,622.378 283.914,623.005C283.767,623.144 283.592,623.273 283.406,623.351C271.902,628.192 262.557,636.79 250.994,641.641C234.544,648.543 217.521,652.748 199.829,654.619C187.124,655.964 174.389,655.755 161.653,655.821C151.268,655.877 140.939,656.636 130.661,658.185C128.942,658.443 127.497,659.498 125.463,659.737ZM245.818,635.814C243.068,637.013 242.256,640.203 239.505,642.109C239.534,639.437 241.561,638.324 242.044,636.262C227.47,638.855 212.981,640.303 198.504,641.865C195.986,642.136 193.314,641.769 190.942,643.015C186.488,645.355 182.044,647.712 177.622,650.113C176.999,650.451 175.978,650.536 176.033,651.731C176.476,651.78 176.878,651.859 177.28,651.864C197.947,652.064 218.221,649.586 238.063,643.547C242.337,642.246 244.333,639.488 245.818,635.814Z" style="fill:rgb(234,243,246);"/>
        </g>
        <g transform="matrix(0.52974,0,0,0.52974,17.2295,159.518)">
            <path d="M293.418,608.187C292.306,610.432 290.447,611.564 288.74,612.807C277.531,620.969 264.717,625.249 251.326,628.007C234.518,631.469 217.461,633.401 200.521,636.054C186.319,638.279 172.038,640.004 158.01,643.266C147.547,645.698 137.461,649.098 127.964,654.176C126.653,654.876 125.433,655.922 123.604,655.893C123.708,654.305 125.01,653.911 125.937,653.305C136.965,646.108 149.329,642.314 162.013,639.482C182.984,634.8 204.343,632.397 225.53,628.986C241.445,626.423 257.506,624.551 272.698,618.696C279.056,616.246 285.053,613.112 290.599,609.128C291.296,608.627 291.857,607.695 293.418,608.187Z" style="fill:rgb(234,243,246);"/>
        </g>
        <g transform="matrix(0.52974,0,0,0.52974,17.2295,159.518)">
            <path d="M279.316,540.567C279.388,548.951 270.76,558.172 262.405,558.642C253.628,559.136 247.559,549.817 251.565,541.596C254.753,535.055 260.334,531.291 267.515,530.374C273.847,529.567 279.263,534.465 279.316,540.567ZM255.898,540.129C255.898,543.097 255.796,545.343 255.922,547.576C256.1,550.74 257.821,552.932 260.657,554.243C265.085,556.29 269.796,554.825 272.761,550.523C275.803,546.111 275.571,541.35 272.146,537.864C268.712,534.37 263.656,533.818 258.134,536.338C253.683,538.368 251.941,542.234 253.363,547.289C254.206,545.014 253.737,542.464 255.898,540.129Z" style="fill:rgb(234,243,246);"/>
        </g>
        <g transform="matrix(0.52974,0,0,0.52974,17.2295,159.518)">
            <path d="M300.01,608.835C300.241,606.57 301.378,605.72 302.177,604.718C313.952,589.937 320.143,573.115 321.295,554.253C321.719,547.307 320.78,540.527 320.267,533.682C320.229,533.172 320.068,532.669 320.037,532.16C319.98,531.224 319.926,530.018 320.972,529.802C322.241,529.538 322.249,530.929 322.467,531.721C323.892,536.918 324.264,542.302 324.178,547.61C323.863,566.911 318.31,584.629 307.24,600.526C305.264,603.359 303.178,606.118 300.01,608.835Z" style="fill:rgb(234,243,246);"/>
        </g>
        <g transform="matrix(0.52974,0,0,0.52974,17.2295,159.518)">
            <path d="M251.27,582.029C248.825,581.981 246.922,579.714 247.013,576.956C247.09,574.622 250.238,572.03 252.814,572.18C254.873,572.3 256.491,574.391 256.386,576.798C256.266,579.528 253.772,582.078 251.27,582.029Z" style="fill:rgb(234,243,246);"/>
        </g>
        <g transform="matrix(0.52974,0,0,0.52974,17.2295,159.518)">
            <path d="M194.051,601.958C198.992,593.522 197.398,582.77 203.619,574.817C200.24,583.812 201.426,594.389 194.051,601.958Z" style="fill:rgb(234,243,246);"/>
        </g>
        <g transform="matrix(0.52974,0,0,0.52974,17.2295,159.518)">
            <path d="M230.681,455.912C231.67,453.065 232.049,450.818 233.316,448.886C236.353,444.252 241.799,444.072 245.108,448.537C250.133,455.319 249.114,466.309 242.933,471.994C240.497,474.234 238.41,474.322 235.804,472.242C235.166,471.732 234.544,471.168 234.042,470.528C227.216,461.816 223.641,451.736 221.883,440.959C221.61,439.284 220.941,436.356 222.845,436.016C224.763,435.672 224.348,438.639 224.802,440.153C226.36,445.343 227.968,450.499 230.681,455.912ZM235.567,457.392C235.767,459.364 235.951,462.232 236.379,465.061C236.705,467.212 238.238,468.621 240.309,468.823C242.29,469.016 243.129,467.241 243.519,465.642C244.429,461.909 244.65,458.105 243.093,454.481C242.171,452.334 241.027,449.656 238.241,450.1C235.176,450.589 235.68,453.572 235.568,455.888C235.558,456.092 235.567,456.298 235.567,457.392Z" style="fill:rgb(234,243,246);"/>
        </g>
        <g transform="matrix(0.52974,0,0,0.52974,17.2295,159.518)">
            <path d="M228.27,491.688C228.133,492.756 228.06,493.993 227.806,495.191C226.442,501.633 221.923,503.273 216.754,499.167C209.296,493.24 205.346,485.368 203.876,476.054C203.244,472.047 205.469,469.854 208.403,468.138C211.244,466.477 214.285,466.76 216.777,468.832C223.844,474.71 227.708,482.289 228.27,491.688ZM224.584,494.805C224.211,486.259 220.361,479.306 214.679,473.213C213.762,472.231 212.541,471.638 211.246,471.242C208.24,470.325 206.076,471.962 206.791,474.943C208.953,483.947 213.762,491.261 221.406,496.6C222.124,497.101 222.985,497.769 223.924,497.051C224.644,496.503 224.621,495.62 224.584,494.805Z" style="fill:rgb(234,243,246);"/>
        </g>
        <g transform="matrix(0.52974,0,0,0.52974,17.2295,159.518)">
            <path d="M214.843,443.691C215.455,443.873 215.645,444.334 215.843,444.822C221.625,459.066 229.946,471.946 237.541,485.217C237.999,486.019 238.488,486.814 238.836,487.664C239.474,489.225 238.567,490.278 237.376,490.986C236.08,491.756 235.569,490.506 235.002,489.718C231.574,484.955 228.643,479.88 225.886,474.716C222.209,467.831 218.645,460.885 215.142,453.91C213.901,451.438 212.808,448.837 213.19,445.944C213.325,444.93 213.64,443.93 214.843,443.691Z" style="fill:rgb(234,243,246);"/>
        </g>
        <g transform="matrix(0.52974,0,0,0.52974,17.2295,159.518)">
            <path d="M212.626,505.603C211.873,506.929 211.762,508.531 210.43,508.441C208.974,508.343 209.18,506.678 209.034,505.694C208.383,501.267 206.353,497.583 203.615,494.12C201.647,491.632 200.004,488.88 198.295,486.195C197.616,485.129 196.369,483.786 197.941,482.71C199.3,481.78 200.459,482.957 201.294,484.02C205.739,489.675 210.19,495.329 214.545,501.054C216.534,503.669 218.311,506.446 220.181,509.152C221.004,510.342 221.536,511.605 220.112,512.673C218.535,513.857 217.935,512.232 217.221,511.397C215.693,509.611 214.291,507.719 212.626,505.603Z" style="fill:rgb(234,243,246);"/>
        </g>
        <g transform="matrix(0.52974,0,0,0.52974,17.2295,159.518)">
            <path d="M132.869,454.534C132.806,456.297 131.424,456.548 130.401,457.101C123.462,460.858 118.291,466.147 115.774,473.782C115.531,474.518 115.349,475.696 114.316,475.396C113.34,475.114 113.672,473.969 113.919,473.256C114.319,472.103 114.812,470.941 115.487,469.932C119.039,464.623 122.767,459.452 128.372,456.057C129.714,455.244 131.05,454.206 132.869,454.534Z" style="fill:rgb(234,243,246);"/>
        </g>
    </g>
    <g transform="matrix(1,0,0,1,227.012,243.311)">
        <g>
            <path d="M59.502,-0.94C59.189,0.313 58.123,0.94 56.306,0.94C55.115,0.94 54.301,0.533 53.862,-0.282C53.486,-2.287 53.157,-4.418 52.875,-6.674C52.593,-8.93 52.389,-11.374 52.264,-14.006C52.264,-14.946 52.217,-15.917 52.123,-16.92C52.029,-17.923 51.888,-19.16 51.7,-20.633C51.512,-22.106 51.293,-23.954 51.042,-26.179C50.791,-28.404 50.541,-31.239 50.29,-34.686L46.906,-29.892C45.966,-28.576 44.963,-27.37 43.898,-26.273C42.833,-25.176 41.767,-24.095 40.702,-23.03C39.699,-21.15 37.663,-18.863 34.592,-16.168C34.467,-16.168 34.388,-16.152 34.357,-16.121C34.326,-16.09 34.247,-16.074 34.122,-16.074C32.681,-16.074 31.459,-16.513 30.456,-17.39C29.453,-18.267 28.404,-19.583 27.307,-21.338C26.21,-23.093 24.926,-25.286 23.453,-27.918C21.98,-30.55 20.053,-33.621 17.672,-37.13C17.672,-37.067 17.609,-36.629 17.484,-35.814C17.359,-34.999 17.202,-33.965 17.014,-32.712C16.826,-31.459 16.638,-30.096 16.45,-28.623C16.262,-27.15 16.058,-25.693 15.839,-24.252C15.62,-22.811 15.432,-21.495 15.275,-20.304C15.118,-19.113 15.009,-18.205 14.946,-17.578L14.946,-16.074C15.009,-15.134 14.977,-14.037 14.852,-12.784C14.727,-11.531 14.601,-10.121 14.476,-8.554L13.536,1.128C13.411,2.381 12.408,3.008 10.528,3.008C9.212,3.008 8.366,2.726 7.99,2.162C7.614,1.598 7.426,0.501 7.426,-1.128C7.426,-2.945 7.457,-4.387 7.52,-5.452C7.583,-6.517 7.645,-7.332 7.708,-7.896C7.771,-8.46 7.849,-8.867 7.943,-9.118C8.037,-9.369 8.115,-9.619 8.178,-9.87C8.241,-10.121 8.319,-10.45 8.413,-10.857C8.507,-11.264 8.554,-11.907 8.554,-12.784C8.617,-14.789 8.664,-16.184 8.695,-16.967C8.726,-17.75 8.758,-18.361 8.789,-18.8C8.82,-19.239 8.899,-19.756 9.024,-20.351C9.149,-20.946 9.337,-22.059 9.588,-23.688C9.776,-24.753 9.901,-25.662 9.964,-26.414C10.027,-27.166 10.058,-27.761 10.058,-28.2L10.058,-28.858C10.121,-30.111 10.215,-31.38 10.34,-32.665C10.465,-33.95 10.622,-35.328 10.81,-36.801C10.998,-38.274 11.233,-39.903 11.515,-41.689C11.797,-43.475 12.189,-45.496 12.69,-47.752C13.317,-48.379 14.413,-48.692 15.98,-48.692C16.795,-48.692 17.421,-48.567 17.86,-48.316C18.988,-46.749 20.085,-45.214 21.15,-43.71C22.215,-42.206 23.359,-40.514 24.581,-38.634C25.803,-36.754 27.103,-34.623 28.482,-32.242C29.861,-29.861 31.396,-27.041 33.088,-23.782L36.378,-26.978C38.07,-28.67 39.167,-30.08 39.668,-31.208C39.793,-31.333 40.373,-32.085 41.407,-33.464C42.441,-34.843 43.929,-36.879 45.872,-39.574L49.914,-44.744C50.353,-44.995 50.854,-45.12 51.418,-45.12C52.734,-45.12 53.925,-44.65 54.99,-43.71C56.118,-39.073 56.682,-35.563 56.682,-33.182L56.682,-32.242C56.682,-31.929 56.745,-31.161 56.87,-29.939C56.995,-28.717 57.152,-27.385 57.34,-25.944C57.528,-24.503 57.716,-23.124 57.904,-21.808C58.092,-20.492 58.249,-19.615 58.374,-19.176C58.374,-17.421 58.468,-15.526 58.656,-13.489C58.844,-11.452 59.095,-9.275 59.408,-6.956C59.533,-6.204 59.627,-5.499 59.69,-4.841C59.753,-4.183 59.784,-3.603 59.784,-3.102C59.784,-2.225 59.69,-1.504 59.502,-0.94Z" style="fill:rgb(234,243,246);fill-rule:nonzero;"/>
            <path d="M107.536,-9.4C108.413,-8.836 108.852,-8.147 108.852,-7.332C108.852,-6.455 108.413,-5.609 107.536,-4.794C106.659,-3.979 105.813,-3.572 104.998,-3.572C103.055,-4.261 101.379,-5.546 99.969,-7.426C98.559,-9.306 97.603,-11.343 97.102,-13.536C96.663,-12.596 96.146,-11.421 95.551,-10.011C94.956,-8.601 94.188,-7.269 93.248,-6.016C92.308,-4.763 91.149,-3.682 89.77,-2.773C88.391,-1.864 86.668,-1.41 84.6,-1.41C83.535,-1.41 82.125,-1.598 80.37,-1.974C78.427,-3.353 76.908,-4.465 75.811,-5.311C74.714,-6.157 73.884,-6.956 73.32,-7.708C72.756,-8.46 72.411,-9.306 72.286,-10.246C72.161,-11.186 72.098,-12.439 72.098,-14.006C72.098,-15.322 72.302,-16.779 72.709,-18.377C73.116,-19.975 73.696,-21.589 74.448,-23.218C75.2,-24.847 76.14,-26.445 77.268,-28.012C78.396,-29.579 79.712,-31.02 81.216,-32.336C83.973,-33.276 86.135,-33.965 87.702,-34.404C89.269,-34.843 90.334,-35.062 90.898,-35.062C92.151,-36.503 93.467,-37.224 94.846,-37.224C95.598,-37.224 96.256,-36.785 96.82,-35.908C97.384,-35.031 97.901,-33.887 98.371,-32.477C98.841,-31.067 99.217,-29.516 99.499,-27.824C99.781,-26.132 100.016,-24.503 100.204,-22.936C100.392,-22.623 100.549,-22.262 100.674,-21.855C100.799,-21.448 100.925,-20.931 101.05,-20.304L101.614,-17.672C101.99,-15.855 102.711,-14.288 103.776,-12.972C104.841,-11.656 106.095,-10.465 107.536,-9.4ZM94.282,-21.808C94.157,-22.372 93.937,-23.312 93.624,-24.628C93.311,-25.944 92.903,-27.636 92.402,-29.704C91.65,-29.516 90.835,-29.438 89.958,-29.469C89.081,-29.5 88.141,-29.328 87.138,-28.952C86.135,-28.576 85.054,-27.887 83.895,-26.884C82.736,-25.881 81.561,-24.315 80.37,-22.184C78.866,-19.427 78.114,-16.513 78.114,-13.442C78.49,-12.627 78.835,-11.922 79.148,-11.327C79.461,-10.732 79.853,-10.199 80.323,-9.729C80.793,-9.259 81.373,-8.805 82.062,-8.366C82.751,-7.927 83.629,-7.457 84.694,-6.956C85.634,-7.144 86.433,-7.363 87.091,-7.614C87.749,-7.865 88.329,-8.256 88.83,-8.789C89.331,-9.322 89.801,-9.995 90.24,-10.81C90.679,-11.625 91.211,-12.69 91.838,-14.006C93.467,-17.641 94.282,-20.241 94.282,-21.808Z" style="fill:rgb(234,243,246);fill-rule:nonzero;"/>
            <path d="M148.05,-46.906C147.925,-46.593 147.831,-46.091 147.768,-45.402C147.705,-44.713 147.674,-43.835 147.674,-42.77C147.674,-40.075 147.705,-37.913 147.768,-36.284C147.831,-34.655 147.862,-33.652 147.862,-33.276L147.58,-31.678C147.768,-31.177 147.862,-30.581 147.862,-29.892C147.862,-29.704 147.831,-29.344 147.768,-28.811C147.705,-28.278 147.643,-27.683 147.58,-27.025C147.517,-26.367 147.455,-25.693 147.392,-25.004C147.329,-24.315 147.298,-23.751 147.298,-23.312C147.298,-23.187 147.314,-23.061 147.345,-22.936C147.376,-22.811 147.392,-22.685 147.392,-22.56C147.079,-21.119 146.734,-18.612 146.358,-15.04C145.982,-11.468 145.575,-7.426 145.136,-2.914C144.635,-1.41 143.475,-0.658 141.658,-0.658C140.53,-0.658 139.841,-0.83 139.59,-1.175C139.339,-1.52 139.026,-2.131 138.65,-3.008C136.707,-1.755 133.762,-1.128 129.814,-1.128C127.683,-1.128 125.772,-1.504 124.08,-2.256C122.388,-3.008 120.931,-4.011 119.709,-5.264C118.487,-6.517 117.547,-8.006 116.889,-9.729C116.231,-11.452 115.902,-13.317 115.902,-15.322C115.902,-16.513 116.043,-17.688 116.325,-18.847C116.607,-20.006 116.967,-21.072 117.406,-22.043C117.845,-23.014 118.33,-23.907 118.863,-24.722C119.396,-25.537 119.913,-26.195 120.414,-26.696C121.667,-28.012 123.5,-29.234 125.913,-30.362C128.326,-31.49 130.879,-32.054 133.574,-32.054C136.081,-32.054 138.556,-31.459 141,-30.268L141,-31.772C141,-33.088 141.047,-34.467 141.141,-35.908C141.235,-37.349 141.345,-38.916 141.47,-40.608L141.094,-47C141.094,-47.439 141.078,-47.846 141.047,-48.222C141.016,-48.598 141,-48.974 141,-49.35C141,-50.979 141.204,-52.217 141.611,-53.063C142.018,-53.909 142.88,-54.332 144.196,-54.332C145.011,-54.332 145.653,-54.207 146.123,-53.956C146.593,-53.705 146.938,-53.282 147.157,-52.687C147.376,-52.092 147.533,-51.324 147.627,-50.384C147.721,-49.444 147.862,-48.285 148.05,-46.906ZM140.436,-23.782C138.869,-25.286 136.488,-26.038 133.292,-26.038C131.788,-26.038 130.519,-25.913 129.485,-25.662C128.451,-25.411 127.558,-24.988 126.806,-24.393C126.054,-23.798 125.412,-23.046 124.879,-22.137C124.346,-21.228 123.798,-20.116 123.234,-18.8C122.795,-17.672 122.576,-16.45 122.576,-15.134C122.576,-12.627 123.5,-10.638 125.349,-9.165C127.198,-7.692 129.375,-6.956 131.882,-6.956C134.263,-6.956 136.519,-7.833 138.65,-9.588C138.963,-10.779 139.324,-12.22 139.731,-13.912C140.138,-15.604 140.342,-17.327 140.342,-19.082C140.342,-19.458 140.326,-19.881 140.295,-20.351C140.264,-20.821 140.248,-21.244 140.248,-21.62C140.248,-22.121 140.264,-22.544 140.295,-22.889C140.326,-23.234 140.373,-23.531 140.436,-23.782Z" style="fill:rgb(234,243,246);fill-rule:nonzero;"/>
            <path d="M243.272,-16.356L243.272,-15.698C243.272,-13.63 242.426,-11.374 240.734,-8.93C239.042,-6.486 236.128,-4.105 231.992,-1.786C230.3,-0.846 228.765,-0.094 227.386,0.47C226.007,1.034 224.613,1.52 223.203,1.927C221.793,2.334 220.32,2.742 218.785,3.149C217.25,3.556 215.479,4.073 213.474,4.7C212.785,4.763 212.095,4.825 211.406,4.888C210.842,4.951 210.262,4.982 209.667,4.982C209.072,4.982 208.586,4.982 208.21,4.982C207.207,4.982 206.44,4.857 205.907,4.606C205.374,4.355 204.983,3.948 204.732,3.384C204.481,2.82 204.325,2.052 204.262,1.081C204.199,0.11 204.168,-1.128 204.168,-2.632C204.168,-3.447 204.231,-4.167 204.356,-4.794C204.168,-5.233 204.074,-6.173 204.074,-7.614C204.074,-9.933 204.121,-11.922 204.215,-13.583C204.309,-15.244 204.419,-16.654 204.544,-17.813C204.669,-18.972 204.779,-19.991 204.873,-20.868C204.967,-21.745 205.014,-22.591 205.014,-23.406C205.014,-24.221 204.998,-25.082 204.967,-25.991C204.936,-26.9 204.92,-27.887 204.92,-28.952L205.954,-42.77C205.891,-43.271 205.735,-43.961 205.484,-44.838C205.233,-45.715 204.967,-46.561 204.685,-47.376C204.403,-48.191 204.137,-48.896 203.886,-49.491C203.635,-50.086 203.51,-50.353 203.51,-50.29C203.51,-50.541 203.62,-50.87 203.839,-51.277C204.058,-51.684 204.419,-52.076 204.92,-52.452C205.421,-52.828 206.064,-53.157 206.847,-53.439C207.63,-53.721 208.617,-53.862 209.808,-53.862L210.278,-53.862C213.474,-55.366 216.576,-56.118 219.584,-56.118C219.835,-56.118 220.242,-56.134 220.806,-56.165C221.37,-56.196 222.044,-56.149 222.827,-56.024C223.61,-55.899 224.488,-55.632 225.459,-55.225C226.43,-54.818 227.48,-54.175 228.608,-53.298L232.18,-50.384L233.496,-47.846C234.123,-46.655 234.436,-45.433 234.436,-44.18C234.436,-40.984 232.838,-37.788 229.642,-34.592C230.269,-34.404 231.099,-34.075 232.133,-33.605C233.167,-33.135 234.201,-32.634 235.235,-32.101C236.269,-31.568 237.193,-31.083 238.008,-30.644C238.823,-30.205 239.324,-29.892 239.512,-29.704C240.389,-28.701 241.141,-26.947 241.768,-24.44C242.395,-21.933 242.896,-19.239 243.272,-16.356ZM227.48,-45.966C227.417,-46.217 227.198,-46.624 226.822,-47.188C226.446,-47.752 225.929,-48.285 225.271,-48.786C224.613,-49.287 223.845,-49.742 222.968,-50.149C222.091,-50.556 221.119,-50.76 220.054,-50.76C216.294,-50.76 213.693,-50.039 212.252,-48.598C212.127,-48.097 212.048,-47.533 212.017,-46.906C211.986,-46.279 211.954,-45.527 211.923,-44.65C211.892,-43.773 211.845,-42.739 211.782,-41.548C211.719,-40.357 211.563,-38.979 211.312,-37.412C211.187,-36.535 211.108,-35.814 211.077,-35.25C211.046,-34.686 211.03,-34.247 211.03,-33.934C211.03,-33.495 211.093,-33.213 211.218,-33.088C213.349,-33.464 215.009,-33.762 216.2,-33.981C217.391,-34.2 218.331,-34.435 219.02,-34.686C219.709,-34.937 220.336,-35.25 220.9,-35.626C221.464,-36.002 222.216,-36.566 223.156,-37.318C226.227,-38.885 227.762,-41.015 227.762,-43.71C227.762,-44.337 227.668,-45.089 227.48,-45.966ZM236.316,-13.818C236.692,-14.758 236.88,-15.792 236.88,-16.92C236.88,-18.863 236.629,-20.523 236.128,-21.902C235.627,-23.281 234.953,-24.424 234.107,-25.333C233.261,-26.242 232.258,-26.994 231.099,-27.589C229.94,-28.184 228.671,-28.67 227.292,-29.046C225.287,-29.61 223.845,-29.892 222.968,-29.892C222.279,-29.892 221.401,-29.751 220.336,-29.469C219.271,-29.187 218.158,-28.874 216.999,-28.529C215.84,-28.184 214.727,-27.855 213.662,-27.542C212.597,-27.229 211.751,-27.041 211.124,-26.978C211.187,-26.477 211.218,-25.96 211.218,-25.427L211.218,-23.782C211.218,-21.714 211.046,-19.458 210.701,-17.014C210.356,-14.57 210.184,-11.813 210.184,-8.742C210.184,-7.865 210.215,-6.972 210.278,-6.063C210.341,-5.154 210.372,-4.387 210.372,-3.76C210.372,-3.321 210.356,-2.93 210.325,-2.585C210.294,-2.24 210.278,-1.943 210.278,-1.692C210.591,-1.629 210.936,-1.582 211.312,-1.551C211.688,-1.52 212.064,-1.504 212.44,-1.504C213.317,-1.504 214.477,-1.692 215.918,-2.068C217.359,-2.444 218.785,-2.851 220.195,-3.29C221.605,-3.729 222.874,-4.152 224.002,-4.559C225.13,-4.966 225.851,-5.201 226.164,-5.264C227.104,-5.64 228.107,-6.173 229.172,-6.862C230.237,-7.551 231.271,-8.303 232.274,-9.118C233.277,-9.933 234.138,-10.747 234.859,-11.562C235.58,-12.377 236.065,-13.129 236.316,-13.818Z" style="fill:rgb(234,243,246);fill-rule:nonzero;"/>
            <path d="M267.618,-42.864C267.618,-41.799 267.446,-40.937 267.101,-40.279C266.756,-39.621 266.302,-39.135 265.738,-38.822C265.174,-38.509 264.563,-38.305 263.905,-38.211C263.247,-38.117 262.605,-38.07 261.978,-38.07C261.101,-38.697 260.364,-39.402 259.769,-40.185C259.174,-40.968 258.876,-41.736 258.876,-42.488C258.876,-43.052 259.127,-43.694 259.628,-44.415C260.129,-45.136 260.568,-45.841 260.944,-46.53L265.268,-46.154C266.835,-45.778 267.618,-44.681 267.618,-42.864ZM264.422,-29.234L264.422,-28.858C264.422,-28.294 264.344,-27.37 264.187,-26.085C264.03,-24.8 263.795,-23.124 263.482,-21.056C263.545,-20.743 263.576,-20.304 263.576,-19.74C263.576,-19.364 263.451,-18.518 263.2,-17.202C262.949,-15.886 262.824,-14.758 262.824,-13.818C262.824,-13.63 262.84,-13.442 262.871,-13.254C262.902,-13.066 262.918,-12.909 262.918,-12.784C262.73,-11.907 262.636,-10.653 262.636,-9.024C262.636,-8.335 262.652,-7.598 262.683,-6.815C262.714,-6.032 262.761,-5.201 262.824,-4.324C262.323,-2.507 261.351,-1.598 259.91,-1.598C258.657,-1.598 257.795,-2.272 257.325,-3.619C256.855,-4.966 256.62,-6.737 256.62,-8.93C256.62,-11.123 256.698,-13.129 256.855,-14.946C257.012,-16.763 257.215,-18.471 257.466,-20.069C257.717,-21.667 257.983,-23.202 258.265,-24.675C258.547,-26.148 258.813,-27.605 259.064,-29.046C259.691,-29.986 260.568,-30.456 261.696,-30.456C262.887,-30.456 263.795,-30.049 264.422,-29.234Z" style="fill:rgb(234,243,246);fill-rule:nonzero;"/>
            <path d="M312.456,-46.906C312.331,-46.593 312.237,-46.091 312.174,-45.402C312.111,-44.713 312.08,-43.835 312.08,-42.77C312.08,-40.075 312.111,-37.913 312.174,-36.284C312.237,-34.655 312.268,-33.652 312.268,-33.276L311.986,-31.678C312.174,-31.177 312.268,-30.581 312.268,-29.892C312.268,-29.704 312.237,-29.344 312.174,-28.811C312.111,-28.278 312.049,-27.683 311.986,-27.025C311.923,-26.367 311.861,-25.693 311.798,-25.004C311.735,-24.315 311.704,-23.751 311.704,-23.312C311.704,-23.187 311.72,-23.061 311.751,-22.936C311.782,-22.811 311.798,-22.685 311.798,-22.56C311.485,-21.119 311.14,-18.612 310.764,-15.04C310.388,-11.468 309.981,-7.426 309.542,-2.914C309.041,-1.41 307.881,-0.658 306.064,-0.658C304.936,-0.658 304.247,-0.83 303.996,-1.175C303.745,-1.52 303.432,-2.131 303.056,-3.008C301.113,-1.755 298.168,-1.128 294.22,-1.128C292.089,-1.128 290.178,-1.504 288.486,-2.256C286.794,-3.008 285.337,-4.011 284.115,-5.264C282.893,-6.517 281.953,-8.006 281.295,-9.729C280.637,-11.452 280.308,-13.317 280.308,-15.322C280.308,-16.513 280.449,-17.688 280.731,-18.847C281.013,-20.006 281.373,-21.072 281.812,-22.043C282.251,-23.014 282.736,-23.907 283.269,-24.722C283.802,-25.537 284.319,-26.195 284.82,-26.696C286.073,-28.012 287.906,-29.234 290.319,-30.362C292.732,-31.49 295.285,-32.054 297.98,-32.054C300.487,-32.054 302.962,-31.459 305.406,-30.268L305.406,-31.772C305.406,-33.088 305.453,-34.467 305.547,-35.908C305.641,-37.349 305.751,-38.916 305.876,-40.608L305.5,-47C305.5,-47.439 305.484,-47.846 305.453,-48.222C305.422,-48.598 305.406,-48.974 305.406,-49.35C305.406,-50.979 305.61,-52.217 306.017,-53.063C306.424,-53.909 307.286,-54.332 308.602,-54.332C309.417,-54.332 310.059,-54.207 310.529,-53.956C310.999,-53.705 311.344,-53.282 311.563,-52.687C311.782,-52.092 311.939,-51.324 312.033,-50.384C312.127,-49.444 312.268,-48.285 312.456,-46.906ZM304.842,-23.782C303.275,-25.286 300.894,-26.038 297.698,-26.038C296.194,-26.038 294.925,-25.913 293.891,-25.662C292.857,-25.411 291.964,-24.988 291.212,-24.393C290.46,-23.798 289.818,-23.046 289.285,-22.137C288.752,-21.228 288.204,-20.116 287.64,-18.8C287.201,-17.672 286.982,-16.45 286.982,-15.134C286.982,-12.627 287.906,-10.638 289.755,-9.165C291.604,-7.692 293.781,-6.956 296.288,-6.956C298.669,-6.956 300.925,-7.833 303.056,-9.588C303.369,-10.779 303.73,-12.22 304.137,-13.912C304.544,-15.604 304.748,-17.327 304.748,-19.082C304.748,-19.458 304.732,-19.881 304.701,-20.351C304.67,-20.821 304.654,-21.244 304.654,-21.62C304.654,-22.121 304.67,-22.544 304.701,-22.889C304.732,-23.234 304.779,-23.531 304.842,-23.782Z" style="fill:rgb(234,243,246);fill-rule:nonzero;"/>
            <path d="M351.372,-10.246C351.184,-8.429 350.526,-6.705 349.398,-5.076L346.014,-0.282C345.45,0.219 344.573,0.642 343.382,0.987C342.191,1.332 340.985,1.614 339.763,1.833C338.541,2.052 337.444,2.225 336.473,2.35C335.502,2.475 334.985,2.538 334.922,2.538C334.295,2.538 333.496,2.428 332.525,2.209C331.554,1.99 330.598,1.755 329.658,1.504C328.718,1.253 327.903,1.018 327.214,0.799C326.525,0.58 326.149,0.47 326.086,0.47L325.992,0.47C325.303,0.407 324.566,0.251 323.783,0C323,-0.251 322.248,-0.564 321.527,-0.94C320.806,-1.316 320.211,-1.739 319.741,-2.209C319.271,-2.679 319.036,-3.196 319.036,-3.76C319.036,-4.449 319.381,-5.154 320.07,-5.875C320.759,-6.596 321.449,-6.956 322.138,-6.956C328.467,-4.449 333.512,-3.196 337.272,-3.196C338.651,-3.196 339.826,-3.478 340.797,-4.042C341.768,-4.606 342.505,-5.201 343.006,-5.828L344.98,-9.4C344.98,-10.215 344.745,-11.029 344.275,-11.844C343.805,-12.659 343.178,-13.395 342.395,-14.053C341.612,-14.711 340.719,-15.291 339.716,-15.792C338.713,-16.293 337.679,-16.638 336.614,-16.826C335.423,-17.014 334.217,-17.359 332.995,-17.86C331.773,-18.361 330.645,-18.957 329.611,-19.646C328.577,-20.335 327.731,-21.103 327.073,-21.949C326.415,-22.795 326.055,-23.719 325.992,-24.722C325.929,-24.722 325.867,-25.913 325.804,-28.294C325.929,-29.234 326.055,-29.986 326.18,-30.55C326.305,-31.114 326.587,-31.631 327.026,-32.101C327.465,-32.571 328.138,-33.088 329.047,-33.652C329.956,-34.216 331.256,-35.031 332.948,-36.096C333.449,-36.159 334.374,-36.237 335.721,-36.331C337.068,-36.425 338.901,-36.597 341.22,-36.848C342.223,-36.848 344.792,-36.096 348.928,-34.592C349.555,-34.028 349.868,-33.182 349.868,-32.054C349.868,-30.111 349.21,-29.14 347.894,-29.14C347.831,-29.14 347.769,-29.156 347.706,-29.187C347.643,-29.218 347.549,-29.234 347.424,-29.234L344.04,-30.362C342.348,-30.863 340.907,-31.114 339.716,-31.114C337.961,-31.114 336.567,-31.02 335.533,-30.832C334.499,-30.644 333.731,-30.409 333.23,-30.127C332.729,-29.845 332.384,-29.547 332.196,-29.234C332.008,-28.921 331.883,-28.639 331.82,-28.388C331.82,-28.2 331.804,-28.028 331.773,-27.871C331.742,-27.714 331.726,-27.542 331.726,-27.354C331.726,-24.91 332.729,-23.406 334.734,-22.842C344.635,-20.837 350.181,-16.638 351.372,-10.246Z" style="fill:rgb(234,243,246);fill-rule:nonzero;"/>
        </g>
    </g>
</svg>
